/* XPM */
static char *chat_texture_black[] = {
/* columns rows colors chars-per-pixel */
"64 64 256 2 ",
"   c None",
".  c #007B07",
"X  c #007D08",
"o  c #047E18",
"O  c #037C29",
"+  c #057438",
"@  c #036F4D",
"#  c #036F65",
"$  c #04820D",
"%  c #068C0E",
"&  c #06940E",
"*  c #0C8515",
"=  c #0A9413",
"-  c #0C9B15",
";  c #149C1C",
":  c #13941B",
">  c #168A1C",
",  c #0EA217",
"<  c #0FA618",
"1  c #0FAF18",
"2  c #12AB1B",
"3  c #14A31C",
"4  c #13B31D",
"5  c #14BB1D",
"6  c #1B9924",
"7  c #008024",
"8  c #239A2B",
"9  c #2B9A32",
"0  c #1CA724",
"q  c #17BB20",
"w  c #19B422",
"e  c #21A229",
"r  c #32A83A",
"t  c #29B632",
"y  c #2BB233",
"u  c #15C21F",
"i  c #17C520",
"p  c #18C421",
"a  c #19CC23",
"s  c #17C921",
"d  c #1CD126",
"f  c #1FD229",
"g  c #23C82C",
"h  c #23D32D",
"j  c #2BD634",
"k  c #2AD534",
"l  c #31D73A",
"z  c #33D93C",
"x  c #35C63D",
"c  c #0B8348",
"v  c #2D9150",
"b  c #3BBE44",
"n  c #01817C",
"m  c #4DA753",
"M  c #55A95A",
"N  c #52B55B",
"B  c #45B64D",
"V  c #5CAE62",
"C  c #5CB964",
"Z  c #62BC6A",
"A  c #6ABC74",
"S  c #63AF68",
"D  c #3DC947",
"F  c #37DA40",
"G  c #3BDB44",
"H  c #3DD946",
"J  c #44DD4C",
"K  c #52C95C",
"L  c #46DB50",
"P  c #4ADC55",
"I  c #4AD855",
"U  c #52D95E",
"Y  c #46C94F",
"T  c #4CE154",
"R  c #54E35C",
"E  c #5BC865",
"W  c #5BDC65",
"Q  c #5CD367",
"!  c #63CD6D",
"~  c #62D96B",
"^  c #6BC876",
"/  c #74C37C",
"(  c #6ADD74",
")  c #69D875",
"_  c #72D77D",
"`  c #5CE663",
"'  c #5EED66",
"]  c #60E768",
"[  c #64E96C",
"{  c #6BEB72",
"}  c #6EE07A",
"|  c #6AE077",
" . c #72E17E",
".. c #73ED7A",
"X. c #75EE7C",
"o. c #70F276",
"O. c #134B9C",
"+. c #146F8B",
"@. c #1644AC",
"#. c #1845AC",
"$. c #1A48AC",
"%. c #0B52AF",
"&. c #054DB8",
"*. c #134CB3",
"=. c #1E4CB0",
"-. c #0A54B4",
";. c #0957BC",
":. c #1852B8",
">. c #1E5CAF",
",. c #2657B4",
"<. c #2155AF",
"1. c #0472AB",
"2. c #2A65B3",
"3. c #3865BD",
"4. c #2962AE",
"5. c #577EB7",
"6. c #055BC3",
"7. c #055DC7",
"8. c #0362CD",
"9. c #0B67C9",
"0. c #016AD5",
"q. c #016DD9",
"w. c #0165D2",
"e. c #0073DB",
"r. c #007ADE",
"t. c #0A75D8",
"y. c #1868CB",
"u. c #387ACC",
"i. c #2C75CF",
"p. c #007EE1",
"a. c #517BC8",
"s. c #358F8D",
"d. c #5986B5",
"f. c #6287BC",
"g. c #7AC985",
"h. c #79D885",
"j. c #75E282",
"k. c #7AE385",
"l. c #7EE38A",
"z. c #7AEF81",
"x. c #7CF182",
"c. c #2A82DB",
"v. c #3585DD",
"b. c #0083E3",
"n. c #008AE6",
"m. c #058BE7",
"M. c #0092EA",
"N. c #178FEA",
"B. c #2A8CE4",
"V. c #35A4F3",
"C. c #1D83DD",
"Z. c #578ACC",
"A. c #4A89D5",
"S. c #568FD2",
"D. c #5994D8",
"F. c #4D87CE",
"G. c #6693CC",
"H. c #6799D7",
"J. c #749BD6",
"K. c #658BD1",
"L. c #6CA0DC",
"P. c #78A6DC",
"I. c #579AE4",
"U. c #468FE1",
"Y. c #629EE3",
"T. c #47ACF5",
"R. c #50B3F8",
"E. c #64A2E6",
"W. c #6BA4E5",
"Q. c #6EA8E8",
"!. c #72A6E3",
"~. c #7BACE4",
"^. c #73ABE9",
"/. c #79AFEA",
"(. c #77ABE6",
"). c #7DB1EA",
"_. c #83DA8E",
"`. c #87CE91",
"'. c #89D795",
"]. c #8BD494",
"[. c #81E48E",
"{. c #84F28A",
"}. c #80F186",
"|. c #85E492",
" X c #89E496",
".X c #8DE69B",
"XX c #91E59E",
"oX c #92EE97",
"OX c #8FF595",
"+X c #98DBA3",
"@X c #A2DAA9",
"#X c #93E7A1",
"$X c #95E8A3",
"%X c #99E8A6",
"&X c #9DE9AA",
"*X c #99E4A7",
"=X c #9BF0A0",
"-X c #A0EAAE",
";X c #A2E5AF",
":X c #A4EBB2",
">X c #A9EBB6",
",X c #ADECBB",
"<X c #A9E3B5",
"1X c #B1ECBE",
"2X c #B0E2B6",
"3X c #A7F7AB",
"4X c #85AADE",
"5X c #84B1E3",
"6X c #83B5EB",
"7X c #8CBBED",
"8X c #8AB6E7",
"9X c #92BEED",
"0X c #97B8E4",
"qX c #88AEE2",
"wX c #A3BEE7",
"eX c #B4EEC3",
"rX c #B8EFC7",
"tX c #BBEFCA",
"yX c #BEF0CD",
"uX c #BCF0C5",
"iX c #96C1EF",
"pX c #9AC2ED",
"aX c #9DC5F0",
"sX c #A4C6ED",
"dX c #A4CAF2",
"fX c #AACDF3",
"gX c #A0C7F0",
"hX c #AED0F3",
"jX c #B4D4F4",
"kX c #B9D6F5",
"lX c #BDD9F6",
"zX c #B0CCEE",
"xX c #C1F0CF",
"cX c #D3E9D4",
"vX c #D6EED8",
"bX c #C4F1D2",
"nX c #C9F2D6",
"mX c #CCF2DB",
"MX c #D4F3DD",
"NX c #C9EECF",
"BX c #D5DFED",
"VX c #C3DDF7",
"CX c #C7DEF6",
"ZX c #D4F4E3",
"AX c #DBF6E5",
"SX c #D9F5E9",
"DX c #CBE2F8",
"FX c #C7E0F8",
"GX c #D2E6F9",
"HX c #D8E8F8",
"JX c #D6E0EE",
"KX c #E4F8EC",
"LX c #E2EFFB",
"PX c #E8F4F8",
"IX c #F2FAFB",
"UX c None",
/* pixels */
"                                  UXUX@.@.@.#.#.#.#.#.@.@.UXUX                                                                  ",
"                            UX#.=.L.zXGXLXLXPXIXIXLXLXHXCXsXK.=.@.UX                                                            ",
"                      UX@.=.qXHXPXLXLXGXHXHXHXGXGXGXGXGXGXHXLXLXCXJ.=.@.UX                                                      ",
"                    #.,.zXLXLXGXGXGXGXGXDXDXDXDXDXDXDXDXFXFXFXFXCXHXHXwX,.#.                                                    ",
"                UX$.wXHXGXDXDXDXFXFXFXDXFXFXFXFXVXVXVXVXlXlXlXlXlXlXlXFXHX4X#.UX                                                ",
"              @.a.GXGXCXVXVXVXVXFXlXlXlXlXlXlXlXlXkXkXkXkXkXjXjXkXjXhXhXhXVXCX3.#.                                              ",
"            #.4XGXlXlXVXlXlXkXkXlXjXlXjXjXjXjXjXjXjXhXhXhXhXhXhXhXfXhXfXfXfXfXCXK.#.                                            ",
"          @.0XCXkXkXjXjXjXjXjXhXjXhXhXhXhXhXhXhXfXfXfXfXfXfXfXdXdXdXdXdXsXgXgXgXjXP.#.                                          ",
"        $.4XlXhXhXhXhXhXfXhXfXfXfXfXdXdXdXfXdXdXdXdXdXdXdXdXgXaXaXaXaXpXaXpXaXaXiXfXJ.#.                                        ",
"      $.G.kXfXdXfXdXfXdXdXdXdXdXdXdXdXaXaXaXaXiXiXaXiXiXiXiXiXiXiXiXiX9X9X9X7X7X7X7XgXa.#.                                      ",
"    UX3.jXsXsXsXgXsXgXaXaXaXpXaXiXiXiXiXiXiXiXiXiX9X7X9X7X9X7X7X7X7X7X7X6X7X6X8X6X6X6XsX,.UX                                    ",
"    #.0XpXpXpXpX9X9XpXiXiXiX9X9X9XiX9X9X7XiX7X7X7X7X7X7X6X7X7X6X6X6X6X6X6X6X6X).5X/.5X~.qX*.                                    ",
"  UXa.sX0XiX0X9X7X9X9X7X7X7X7X7X7X7X7X7X6X7X6X6X6X).6X6X).).).).6X).)./././././.(.(.!.!.qX3.UX                                  ",
"  #.4X0X8X8X8X8X8X8X6X6X6X6X6X6X).).).).).).)./.)./././././././.^.^.^.^.^.^.!.!.W.!.Q.Q.i.a.*.                                  ",
"UX2.8X4XqXqX5X5X5X5X).).).)././././././././.^.^.^.^.^.^.Q.Q.Q.Q.Q.Q.Q.Q.E.W.E.Y.Y.Y.H.a.&.i.=.UX                                ",
"UXZ.4X4X4XP.~.~.(.(./.^.^.^.^.^.Q.^.Q.Q.Q.Q.Q.Q.Q.Q.E.Q.W.W.W.W.E.E.E.E.E.E.Y.Y.H.D.A.;.&.&.3.UX                                ",
"#.G.P.P.P.P.P.P.!.!.H.4.O.O.2.D.Q.W.E.E.W.D.2.O.O.2.D.E.E.Y.W.E.Z.+.# + + * o X . o o + @ # +.@.                                ",
"#.J.J.L.J.H.L.L.L.D.O.f.JX  BXd.D.E.E.Y.D.O.f.JX  JXd.U.I.D.s.@ o A 2XvXAXPXPXIXIXKXKXAXNX@XC $ X UX                            ",
"#.G.J.H.H.H.H.H.H.4.5.          K.I.I.I.4.5.          d.v * `.MXKXKXSXSXAXSXZXSXZXZXZXZXZXSXSXKXNX/ * . UX                      ",
"#.G.G.G.G.G.S.D.D.O.BX          BXI.U.I.O.JX        S > <XLXKXZXAXAXZXZXMXZXZXmXMXmXmXmXmXmXmXmXnXZXAX@X* .                     ",
"$.>.Z.S.S.S.S.S.D.O.              U.U.U.O.      @X> @XSXZXmXmXmXvXmXmXmXmXnXnXnXnXnXbXbXbXbXbXbXxXxXyXnXAX`.$ UX                ",
"$.%.%.2.F.F.F.F.F.<.BX          JXU.U.U.>.BX  S B MXMXnXmXnXmXnXbXbXbXbXbXbXxXbXxXxXxXxXyXyXrXyXtXtXtXrXrXNXNX9 X               ",
"@.%.%.-.%.y.A.A.A.u.f.          (.v.v.v.u.d.r `.ZXyXxXxXxXxXyXyXxXyXxXyXtXtXtXtXtXtXrXeXrXrXrXrXeXeXeXeX1X1X1XnXC X             ",
"UX%.%.-.%.-.-.9.i.v.u.G.JX  JXW.v.v.v.c.c.O +XNXyXyXyXtXtXtXrXeXrXrXeXeXeXeXeX1X1X1X1X1X,X,X,X,X,X,X>X>X>X>X>X>XxX/ X           ",
"UX*.%.-.-.;.;.6.6.7.9.t.i.C.c.v.c.c.B.i.@ `.xXrXeXeXeXeXeXeX,XeXeX1X,X1X,X,X,X,X,X>X>X>X>X>X:X:X>X>X-X>X:X-X:X-X-X,X^ .         ",
"  @.-.-.;.;.;.6.7.7.8.8.w.0.q.q.t.t.C.# A tX1X,X1X,X1X,X,X,X,X>X>X<X>X>X>X:X:X:X:X-X-X:X-X-X-X-X&X&X&X&X&X&X%X*X%X=X2XB .       ",
"  UX*.;.;.;.6.7.6.7.8.w.0.q.q.q.q.e.1.9 eX<X<X<X>X>X>X>X>X:X:X:X-X-X-X&X-X&X&X&X&X&X&X&X&X=X$X$X$X$X$X$X$X#X#X#XXXXX+X;X> UX    ",
"    @.;.;.;.6.7.7.8.8.0.q.q.e.e.e.e.O *X;X;X-X-X&X-X&X&X&X&X&X&X&X&X&X%X%X%X%X*X$X$X#X$X#X#X#X#XXX.X.X.X.X.X.X.X X X_.'.`..     ",
"    UX*.;.6.7.7.8.w.q.q.q.e.e.e.r.+.N ;X+X@X*X*X*X*X*X*X$X$X$X$X$X$X#X#XXX#XXX.X.X.X.X.X.X.X.X.X X X X|.|.|.|._._._.h.`.'.8 UX  ",
"      @.*.6.7.8.8.0.q.q.e.e.e.r.b.7 `.+X+X+X+X*XXXXXXXXXXXXX.X.X.X X.X X X X X X X X X|.|.|.l.l.l.|.|.l.l.l.h.l.h.h.h._ D N .   ",
"        @.;.8.8.0.q.q.q.r.r.r.p.1.8 +X+X'.'.+X'.'. X X.X X.X X X|.|.|.|.|.l.|.l.l.l.l.l.l.l.k.l.k.k.k.k.k.k.h.h.h._ _ E < b * UX",
"          @.;.w.q.q.e.r.r.r.p.p.n Z `.g.g.'.g.'._._._._.l.l.l.l.l.l.l.l.l.l.k.l.l.k.k.j.j.j.j.j.j.} j.j.} } ) _ ) ! E 2 < 3 r UX",
"            #.6.q.t.r.r.r.r.p.b.@ A g.g.g.g.h.h.h.h.h.h.k.k.k.k.z.j.j.j.j.j.j.j. .j. .}  .} | | | | | | ( ) ) ! ! Q w 2 < , 9 X ",
"              #.*.0.r.r.b.b.b.n.O / g.g.g.g.g.g.h._ h.! 8 * $ 8 Q j.} } } } Q e $ $ 8 Q ( ( | | | U 8 o $ 8 K E K w < < , - e X ",
"                UX*.p.r.b.b.b.n.o A A / ^ g.^ ^ ^ _ E * M cX  cXm Q ( | ( Q $ M cX  cXm K ] ~ ~ K $ M cX  cXm b w 1 2 < , - 6 $ ",
"                #.C.V.b.b.b.n.n.X A Z A ^ Z ^ ^ ^ ! 8 m           Z ~ ~ ~ 6 m           C W W W 8 m           N 4 1 2 , - - ; . ",
"              UXy.T.m.b.b.n.n.M.o 8 V Z E Z Z E E Q $ cX          cXW W W $ cX          cXU U U $ cX          cX4 1 < , - - = . ",
"              :.R.V.p.b.n.n.n.M.O = > r N C E E E E X               U U U $               I I I $               4 4 < , - - = X ",
"            @.T.T.m.b.b.n.M.M.M.c = : : 6 y Y N K K 6 cX          vXI I P 6 cX          vXL J J ; cX          vX4 1 1 < , - = X ",
"          UXi.R.N.b.b.n.n.M.M.M.+.= : : ; 3 0 t b Y b V           l.L L L D V           h.H z h u V           ! 4 1 < < ; - & UX",
"          ,.R.V.b.b.b.n.M.b.t.9.1.$ : ; 3 3 2 w 4 q g t E cX  vX_ J L L P P D ^ cX  vX) j h h f d u C cX  vXQ 5 4 4 1 < , - $ UX",
"        $.T.V.b.r.b.m.t.9.9.:.@.UX. = 3 3 2 2 w q q q p a d d k j l F z z G z z l l z l l j j h h d d d a i u 5 5 4 4 < < - .   ",
"      UXi.R.N.p.r.t.9.;.$.UX      UX% 3 0 2 w w q p p s d d h h k l l l z z G z z z z G z z z j k h h d a s u u 5 4 4 1 < % UX  ",
"      :.T.N.q.9.6.*.#.UX            . = 2 2 w 4 q p p a d h k j l z z H G J J J J J J J z J z z j j h h d a s u 5 5 4 4 , .     ",
"    =.B.B.8.;.#.UX                  UX% 3 4 w 5 p p s d h j j z z H J J J J T T T T T J J J J z z z l j f d a s u 5 4 4 $ UX    ",
"  UXy.y.;.#.UX                        X & 4 q p p a d h h l z z H J J T T T T R R R R T T T J J J z z j k h a s u u 5 & .       ",
"  $.*.#.UX                              $ & 4 p a a f k l z z J J T T R R R ` ` ` ` ` R R T T T J J G z l k f d s i = .         ",
"UXUX                                      . & 5 a h h l z z J J T T R R ` ] [ ] ] ] ] ] ` ` R R T J J z z j h d a - .           ",
"                                            X = 4 h k l z J J P T R ` ] ] { [ { { { { [ [ ] ` R T T J G z l k f & .             ",
"                                              X % , h z G J J R R ` ] [ { { ............{ [ ] ` R R T J J l g $ .               ",
"                                                UX. - w z P T R ` ] [ { ....X.x.X.X.X.X...{ [ ] ` R T J J T = UX                ",
"                                                    . $ 3 0 D R ] [ { ..X.x.}.{.{.{.}.X.X...{ [ ' R T T J { W $                 ",
"                                                      UX. X ; 0 y Y ` X.{.{.{.OXOXOX{.}.}.X...[ ] ` R T J T OXD UX              ",
"                                                            UXX . : e e y B Q ~  .k.z.{.}.X...{ [ ` R T J J ' 3X: UX            ",
"                                                                  UXUX. X X X X X X 8 B ! ( X.{ [ ] R T T G J X.oX$             ",
"                                                                                      UX% r b K ] ` R R J J z T OX! UX          ",
"                                                                                          UXX 6 y b I T T H z l ' 3Xe UX        ",
"                                                                                              UX. % e y x G G l z X.=X$         ",
"                                                                                                    UXX ; 0 t h k z {.~ UX      ",
"                                                                                                        UX. % 3 5 i G OX8 UX    ",
"                                                                                                              UX$ = 1 H  ..     ",
"                                                                                                                  UX. & t t UX  ",
"                                                                                                                      UX. $ . UX",
"                                                                                                                            UXX "
};
