/* XPM */
static char *Free_Converter_com_map_icon_black_75685602[] = {
/* columns rows colors chars-per-pixel */
"64 64 32 1 ",
"  c None",
". c #B8AEAB",
"X c #BAB0AD",
"o c #BDB5B2",
"O c #C5BDBB",
"+ c #CCC5C3",
"@ c #CDC6C4",
"# c #CEC8C6",
"$ c #D2CCCA",
"% c #D4CFCD",
"& c #D5CFCE",
"* c #D6D0CE",
"= c #D9D4D3",
"- c #DAD5D4",
"; c #DDD8D7",
": c #E1DCDB",
"> c #E2DEDD",
", c #E4E0DF",
"< c #E5E1E0",
"1 c #E9E6E5",
"2 c #EDEBEA",
"3 c #EFEDEC",
"4 c #F1EFEE",
"5 c #F2F0EF",
"6 c #F3F1F1",
"7 c #F5F3F3",
"8 c #F5F4F3",
"9 c #F5F4F4",
"0 c #F8F7F7",
"q c #F9F8F8",
"w c #FCFBFB",
"e c gray100",
/* pixels */
"                                                                ",
"                                                                ",
"                                                                ",
"                                                                ",
"                                                                ",
"                                                                ",
"                                                                ",
"                                                                ",
"                                                                ",
"                                                                ",
"                                                                ",
"                                                                ",
"                                                                ",
"                                                                ",
"                                                                ",
"                                                                ",
"                                                                ",
"                                                                ",
"                              #1qeq1#                           ",
"                             3eeeeeee3                          ",
"                            9eeeeeeeee9                         ",
"                           2eeeeeeeeeee2                        ",
"                          +eeeeew4weeeee+                       ",
"                          1eeee,   ,eeee1                       ",
"                          qeee9     9eeeq                       ",
"                          eeee>     >eeee                       ",
"                          eeee<     <eeee                       ",
"                          7eeeq     eeee7                       ",
"                          :eeee8@ @7eeee>                       ",
"                           eeeeeeeeeeeee                        ",
"                           4eeeeeeeeeee6                        ",
"                           @eeeeeeeeeee%                        ",
"                            5eeeeeeeee9                         ",
"                             eeeeeeeee$                         ",
"                             1eeeeeee4                          ",
"                              qeeeeee                           ",
"                              %eeeee;                           ",
"                            +=.2eee4X=+                         ",
"                         %6eee:oqeeo>eee6*                      ",
"                        9eeeeee@#e$#eeeeee9                     ",
"                       7eeeeeeeeO@Oeeeeeeee6                    ",
"                       9eeeeeeeeq@0eeeeeeee0                    ",
"                        weeeeeeeeeeeeeeeeeq                     ",
"                         >qeeeeeeeeeeeeeq>                      ",
"                            =16qqewq61-                         ",
"                                                                ",
"                                                                ",
"                                                                ",
"                                                                ",
"                                                                ",
"                                                                ",
"                                                                ",
"                                                                ",
"                                                                ",
"                                                                ",
"                                                                ",
"                                                                ",
"                                                                ",
"                                                                ",
"                                                                ",
"                                                                ",
"                                                                ",
"                                                                ",
"                                                                "
};
