/* XPM */
static char *Free_Converter_com_settings_black_2985429[] = {
/* columns rows colors chars-per-pixel */
"64 64 207 2 ",
"   c None",
".  c #201606",
"X  c #36270B",
"o  c #39290B",
"O  c #3E2D0C",
"+  c #402E0D",
"@  c #46340E",
"#  c #49330F",
"$  c #4A340F",
"%  c #51370F",
"&  c #4F3710",
"*  c #533A11",
"=  c #5A3D11",
"-  c #583E12",
";  c #5B4114",
":  c #614614",
">  c #624813",
",  c #644813",
"<  c #684C16",
"1  c #6E5018",
"2  c #745317",
"3  c #7D5B1A",
"4  c #855D19",
"5  c #885F1A",
"6  c #895F1A",
"7  c #84611B",
"8  c #89601A",
"9  c #88621B",
"0  c #8C631B",
"q  c #8D651D",
"w  c #926A1D",
"e  c #976B1D",
"r  c #9A6B1E",
"t  c #9B701F",
"y  c #9C7222",
"u  c #9E7422",
"i  c #A27320",
"p  c #A37722",
"a  c #A47621",
"s  c #AB7A23",
"d  c #AD7B23",
"f  c #AA7C23",
"g  c #AB7E25",
"h  c #B37D23",
"j  c #B27F23",
"k  c #AF8125",
"l  c #B48125",
"z  c #B38426",
"x  c #B48427",
"c  c #B58527",
"v  c #B68526",
"b  c #B98125",
"n  c #B88325",
"m  c #BA8225",
"M  c #BD8725",
"N  c #BA8A27",
"B  c #BE8B26",
"V  c #C18A26",
"C  c #C18B27",
"Z  c #C28A26",
"A  c #C38B26",
"S  c #C58B27",
"D  c #C98E27",
"F  c #C98F27",
"G  c #C48E28",
"H  c #C48E29",
"J  c #C89027",
"K  c #C79029",
"L  c #C7922B",
"P  c #C89029",
"I  c #CB9128",
"U  c #CE9128",
"Y  c #CE952A",
"T  c #CD962C",
"R  c #D09028",
"E  c #D19529",
"W  c #D0952A",
"Q  c #D0972A",
"!  c #D69729",
"~  c #D1982B",
"^  c #D49A2B",
"/  c #D0992C",
"(  c #DD9B2B",
")  c #DB9C2B",
"_  c #DE9D2A",
"`  c #D89F2E",
"'  c #E09F2D",
"]  c #DAA02E",
"[  c #DEA22D",
"{  c #DCA12F",
"}  c #DEA42F",
"|  c #DEA52F",
" . c #E5A12B",
".. c #E3A12D",
"X. c #E1A22C",
"o. c #E3A32D",
"O. c #E4A32D",
"+. c #E2A52E",
"@. c #E3A52F",
"#. c #E3A62E",
"$. c #E7A52C",
"%. c #E6A42D",
"&. c #E7A72F",
"*. c #EAA32C",
"=. c #EAA32E",
"-. c #EBA42D",
";. c #EBA52D",
":. c #EBA62D",
">. c #E8A52E",
",. c #E8A62E",
"<. c #E9A62E",
"1. c #E9A72E",
"2. c #EAA72E",
"3. c #EBA72E",
"4. c #ECA52E",
"5. c #EDA52E",
"6. c #EDA62F",
"7. c #EDA72F",
"8. c #EBA82E",
"9. c #EBA92F",
"0. c #ECA82E",
"q. c #ECA92E",
"w. c #EDA82F",
"e. c #EEA82E",
"r. c #EEAA2F",
"t. c #EEAB2F",
"y. c #EEAC2F",
"u. c #F0A82E",
"i. c #F1A82E",
"p. c #F1A92E",
"a. c #F1AC2F",
"s. c #E1A530",
"d. c #E3A730",
"f. c #E4A730",
"g. c #E5A730",
"h. c #E4A731",
"j. c #E3A832",
"k. c #E6A830",
"l. c #E6A932",
"z. c #EAAB30",
"x. c #EBAB30",
"c. c #EDA930",
"v. c #E9AD31",
"b. c #EBAE32",
"n. c #EEAC31",
"m. c #EFAE31",
"M. c #EFAF34",
"N. c #F3A930",
"B. c #F0AD31",
"V. c #F2AC30",
"C. c #F2AD31",
"Z. c #F0AE31",
"A. c #F2AF31",
"S. c #F3AF31",
"D. c #F6AD30",
"F. c #F4AE30",
"G. c #F5AF30",
"H. c #F5AE31",
"J. c #F6AE30",
"K. c #F7AE30",
"L. c #FAAD30",
"P. c #F9AE30",
"I. c #FBAF31",
"U. c #EEB032",
"Y. c #EEB033",
"T. c #F1B031",
"R. c #F2B031",
"E. c #F2B133",
"W. c #F3B233",
"Q. c #F4B032",
"!. c #F4B132",
"~. c #F7B232",
"^. c #F6B332",
"/. c #F7B333",
"(. c #F1B134",
"). c #F0B135",
"_. c #F5B434",
"`. c #F6B434",
"'. c #F7B534",
"]. c #F7B634",
"[. c #F7B635",
"{. c #F9B031",
"}. c #F8B131",
"|. c #F9B131",
" X c #FBB031",
".X c #FBB131",
"XX c #FBB132",
"oX c #F8B232",
"OX c #FBB232",
"+X c #FBB332",
"@X c #F8B432",
"#X c #F9B533",
"$X c #FBB432",
"%X c #FAB433",
"&X c #FBB433",
"*X c #FCB433",
"=X c #FCB533",
"-X c #FCB633",
";X c #F9B735",
":X c #FBB634",
">X c #FAB635",
",X c #FCB634",
"<X c #FCB734",
"1X c #F9B835",
"2X c #FCB936",
"3X c #FCBA36",
"4X c None",
/* pixels */
"                                                                                                                                ",
"                                                                                                                                ",
"                                                                                                                                ",
"                                                                                                                                ",
"                                                                                                                                ",
"                                                                                                                                ",
"                                                                                                                                ",
"                                                                                                                                ",
"                                                                                                                                ",
"                                                                                                                                ",
"                                                                                                                                ",
"                                                          L.L.L.L.*.                                                            ",
"                                                           X X XL.6.                                                            ",
"                                                           X X X X=.                                                            ",
"                                                           X.X.X X:.                                                            ",
"                                                          .X&X.X&X=.4X                                                          ",
"                                    & =           4X4Xo M &X&X&X*X9.> 4X4X4X                                                    ",
"                                4X$ =.c.%       + i X. X&X&X&X&X*X&X&Xy.M , 4X      9  Xn                                       ",
"                                4X6. X X9.$ . l G.&X&X&X*X*X*X*X*X*X*X&X&X&XE * 4X5  X X Xm                                     ",
"                                i. X X X Xq.a. X&X<X*X*X*X<X<X<X<X<X*X<X*X*X&X&XG  X X*X X X                                    ",
"                                9. X X&X&X&X&X*X*X*X<X*X*X<X2X*X*X<X&X<X*X*X<X*X<X X&X X X X                                    ",
"                                  9. X X&X&X*X*X&X<X2X<X<X*X/.E.<X<X<X<X<X*X<X*X X<X&X&X XX.                                    ",
"                                  4Xq.&X&X<X*X<X<X<X&X#.              n.*X2X*X<X*X*X&X&XU                                       ",
"                                    a.&X*X*X*X<X<X#.                    4XE.2X<X<X*X*X&Xe                                       ",
"                                4XA &X*X*X<X<X/.      4XX 7 z v y < 4X      v.<X&X<X&X*Xq.                                      ",
"                                4X X&X*X*X<X&X      4Xv 2X2X2X2X2X2Xs.;       y.<X<X<X*X&Xf                                     ",
"                                J &X*X<X<X<X~     > l.2X2X3X3X2X3X3X2X2Xk 4X    /.&X<X*X*XZ.                                    ",
"                                G.&X*X<X<Xn.    4XE.2X2X].          3X2X<Xv     P <X<X<X*X&X0                                   ",
"                            4X2 *X&X*X<X<XA     ` 2X2Xv.              <X3X3X1     E.<X&X*X&Xn                                   ",
"                    r 8 8 8 5 V &X*X*X<X&X    4X2X2XU.                  3X3X/     ~ <X<X*X*XO.                                  ",
"                    L. X X X X&X&X*X<X<Xk.    B 2X2X                    Y.2X`.    4X<X*X<X*X&X&X X X X X                        ",
"                    L.L. X X*X&X&X*X<X*X^     ] 2X2X                    T 2X2X    4X<X<X<X*X&X&X&X X X X                        ",
"                    L. X X&X X&X*X*X*X<XY     s.2X3X                    N 2X2X    4X2X<X*X*X&X&X.X.X.X.X                        ",
"                    L. X X X X&X&X*X*X<X~     { 2X3X                    L 2X2X    4X<X*X<X<X&X&X X.XI..X                        ",
"                    L. X X X X&X&X<X*X<Xl.    / 2X3X                    ).2X`.    t <X<X*X*X&X&X X X.XI.                        ",
"                                &X*X*X<X<X4X  4X2X2XU.                k 2X2X|     K <X*X*X<XX.                                  ",
"                                &X*X*X<X<Xa     l.2X2X[             u 2X2X<X    4XE.<X<X*X*XJ                                   ",
"                                9.*X*X<X<XZ.      E.2X3X`.        j.2X2X2X4X    f <X*X<X*X*X                                    ",
"                                Q &X*X<X<X<Xz       ).2X2X3X3X3X3X3X2X<X4X    @ /.&X<X<X*X                                      ",
"                                  G.&X*X*X<X<X8 4X    l.].2X2X2X2X2XY.      4Xs.<X<X*X*X&X                                      ",
"                                  A &X&X*X<X<X&Xw 4X                        [ <X<X2X*X*XX.                                      ",
"                                  4X=.&X<X*X&X<X<XK O                   0 E.2X*X*X*X&X&X;                                       ",
"                                4Xd &X&X&X*X&X<X*X<X@XG 3           p l.<X<X*X2X&X&X&X&XP 4X                                    ",
"                                h  X X&X&X&X<X*X<X<X*X<X2X*X2X*X<X<X<X2X*X<X<X*X*X&X$X&X XD                                     ",
"                              R  X X X X$X$X&X*X*X*X<X<X*X<X<X<X<X<X<X<X*X*X*X*X&X$X&X X X X(                                   ",
"                                6. X&X X$X) $..X&X*X*X*X*X<X*X<X*X*X*X&X*X<X*Xy.! .X&X X X/.4X                                  ",
"                                  6. X X_     4X9.&X&X&X<X*X*X*X*X*X*X&X&XZ.4X    4XL. XG.4X                                    ",
"                                    N. .            4Xq.G.&X&X&X*X&Xq.&.            4XK.4X                                      ",
"                                                          &X X&X Xq.                                                            ",
"                                                          &X&X X&Xq.                                                            ",
"                                                           X X X X=.                                                            ",
"                                                           X X X Xq.                                                            ",
"                                                           X X XL.i.                                                            ",
"                                                                                                                                ",
"                                                                                                                                ",
"                                                                                                                                ",
"                                                                                                                                ",
"                                                                                                                                ",
"                                                                                                                                ",
"                                                                                                                                ",
"                                                                                                                                ",
"                                                                                                                                ",
"                                                                                                                                ",
"                                                                                                                                "
};
