/* XPM */
static char *baed958fcd5f4358b369a0f631ce1f47[] = {
/* columns rows colors chars-per-pixel */
"60 60 3 1 ",
"  c #000000",
"$ c red",
"% c None",
/* pixels */
"%%%%%%%%%%%%%       %%%%%%%%%%%%%%%%%%%%       %%%%%%%%%%%%%",
"%%%%%%%%%%            %%%%%%%%%%%%%%%%            %%%%%%%%%%",
"%%%%%%%%               %%%%%%%%%%%%%%               %%%%%%%%",
"%%%%%%                  %%%%%%%%%%%%                  %%%%%%",
"%%%%%                    %%%%%%%%%%                    %%%%%",
"%%%%                      %%%%%%%%                      %%%%",
"%%%                        %%%%%%                        %%%",
"%%%                         %%%%                         %%%",
"%%                          %%%%                          %%",
"%                            %%                            %",
"%                            %%                            %",
"%                                                          %",
"                                                            ",
"                                                            ",
"                                                            ",
"                                                            ",
"                                                            ",
"                                                            ",
"                                                            ",
"                                                            ",
"                                                            ",
"                                                            ",
"%                                                          %",
"%                                                          %",
"%                                                          %",
"%                                                          %",
"%%                                                         %",
"%%                                                        %%",
"%%                                                        %%",
"%%%                                                      %%%",
"%%%                                                      %%%",
"%%%                                                      %%%",
"%%%%                                                    %%%%",
"%%%%                                                    %%%%",
"%%%%%                                                  %%%%%",
"%%%%%                                                  %%%%%",
"%%%%%%                                                %%%%%%",
"%%%%%%%                                              %%%%%%%",
"%%%%%%%                                              %%%%%%%",
"%%%%%%%%                                            %%%%%%%%",
"%%%%%%%%%                                          %%%%%%%%%",
"%%%%%%%%%%                                        %%%%%%%%%%",
"%%%%%%%%%%                                       %%%%%%%%%%%",
"%%%%%%%%%%%                                      %%%%%%%%%%%",
"%%%%%%%%%%%%                                    %%%%%%%%%%%%",
"%%%%%%%%%%%%%                                  %%%%%%%%%%%%%",
"%%%%%%%%%%%%%%                                %%%%%%%%%%%%%%",
"%%%%%%%%%%%%%%%                              %%%%%%%%%%%%%%%",
"%%%%%%%%%%%%%%%%                            %%%%%%%%%%%%%%%%",
"%%%%%%%%%%%%%%%%%                          %%%%%%%%%%%%%%%%%",
"%%%%%%%%%%%%%%%%%%                        %%%%%%%%%%%%%%%%%%",
"%%%%%%%%%%%%%%%%%%%                      %%%%%%%%%%%%%%%%%%%",
"%%%%%%%%%%%%%%%%%%%%                    %%%%%%%%%%%%%%%%%%%%",
"%%%%%%%%%%%%%%%%%%%%%                  %%%%%%%%%%%%%%%%%%%%%",
"%%%%%%%%%%%%%%%%%%%%%%%              %%%%%%%%%%%%%%%%%%%%%%%",
"%%%%%%%%%%%%%%%%%%%%%%%%            %%%%%%%%%%%%%%%%%%%%%%%%",
"%%%%%%%%%%%%%%%%%%%%%%%%%          %%%%%%%%%%%%%%%%%%%%%%%%%",
"%%%%%%%%%%%%%%%%%%%%%%%%%%       %%%%%%%%%%%%%%%%%%%%%%%%%%%",
"%%%%%%%%%%%%%%%%%%%%%%%%%%%%    %%%%%%%%%%%%%%%%%%%%%%%%%%%%",
"%%%%%%%%%%%%%%%%%%%%%%%%%%%%%  %%%%%%%%%%%%%%%%%%%%%%%%%%%%%"
};
