/* XPM */
static char *_8675368cc494a95bc998f03e35bf9e6[] = {
/* columns rows colors chars-per-pixel */
"64 64 4 1 ",
"  c #747474",
". c gray50",
"X c gray56",
"o c #686868",
/* pixels */
"....                ....XXXXXXXXooooXXXX....                ....",
"....                ....XXXXXXXXooooXXXX....                ....",
"....                ....XXXXXXXXooooXXXX....                ....",
"....                ....XXXXXXXXooooXXXX....                ....",
"........XXXXXXXXXXXXXXXXXXXXXXXX    XXXXXXXXXXXXoooo........    ",
"........XXXXXXXXXXXXXXXXXXXXXXXX    XXXXXXXXXXXXoooo........    ",
"........XXXXXXXXXXXXXXXXXXXXXXXX    XXXXXXXXXXXXoooo........    ",
"........XXXXXXXXXXXXXXXXXXXXXXXX    XXXXXXXXXXXXoooo........    ",
"....oooo        oooo            XXXX    ............XXXX........",
"....oooo        oooo            XXXX    ............XXXX........",
"....oooo        oooo            XXXX    ............XXXX........",
"....oooo        oooo            XXXX    ............XXXX........",
"....XXXX............oooo....XXXX........                    ....",
"....XXXX............oooo....XXXX........                    ....",
"....XXXX............oooo....XXXX........                    ....",
"....XXXX............oooo....XXXX........                    ....",
"....XXXXXXXX                            XXXXXXXXXXXXXXXXXXXXoooo",
"....XXXXXXXX                            XXXXXXXXXXXXXXXXXXXXoooo",
"....XXXXXXXX                            XXXXXXXXXXXXXXXXXXXXoooo",
"....XXXXXXXX                            XXXXXXXXXXXXXXXXXXXXoooo",
"        ............            ....oooo........        oooo....",
"        ............            ....oooo........        oooo....",
"        ............            ....oooo........        oooo....",
"        ............            ....oooo........        oooo....",
"XXXXXXXX............    XXXXXXXX................XXXXXXXXXXXXoooo",
"XXXXXXXX............    XXXXXXXX................XXXXXXXXXXXXoooo",
"XXXXXXXX............    XXXXXXXX................XXXXXXXXXXXXoooo",
"XXXXXXXX............    XXXXXXXX................XXXXXXXXXXXXoooo",
"............                        oooo                ........",
"............                        oooo                ........",
"............                        oooo                ........",
"............                        oooo                ........",
"....XXXXXXXXooooXXXX    ............XXXXXXXXXXXXXXXXXXXXXXXXXXXX",
"....XXXXXXXXooooXXXX    ............XXXXXXXXXXXXXXXXXXXXXXXXXXXX",
"....XXXXXXXXooooXXXX    ............XXXXXXXXXXXXXXXXXXXXXXXXXXXX",
"....XXXXXXXXooooXXXX    ............XXXXXXXXXXXXXXXXXXXXXXXXXXXX",
"....                        ....oooo........            XXXX....",
"....                        ....oooo........            XXXX....",
"....                        ....oooo........            XXXX....",
"....                        ....oooo........            XXXX....",
"........XXXX        XXXXXXXX    oooo    XXXXXXXXXXXX............",
"........XXXX        XXXXXXXX    oooo    XXXXXXXXXXXX............",
"........XXXX        XXXXXXXX    oooo    XXXXXXXXXXXX............",
"........XXXX        XXXXXXXX    oooo    XXXXXXXXXXXX............",
"oooo............    ............XXXXXXXX............XXXXXXXXoooo",
"oooo............    ............XXXXXXXX............XXXXXXXXoooo",
"oooo............    ............XXXXXXXX............XXXXXXXXoooo",
"oooo............    ............XXXXXXXX............XXXXXXXXoooo",
"....                            XXXXXXXX                    ....",
"....                            XXXXXXXX                    ....",
"....                            XXXXXXXX                    ....",
"....                            XXXXXXXX                    ....",
"....XXXX    XXXXoooo........            oooo    ........XXXXXXXX",
"....XXXX    XXXXoooo........            oooo    ........XXXXXXXX",
"....XXXX    XXXXoooo........            oooo    ........XXXXXXXX",
"....XXXX    XXXXoooo........            oooo    ........XXXXXXXX",
"............                    ........XXXXXXXX....        ....",
"............                    ........XXXXXXXX....        ....",
"............                    ........XXXXXXXX....        ....",
"............                    ........XXXXXXXX....        ....",
"                ooooXXXXXXXX................            ........",
"                ooooXXXXXXXX................            ........",
"                ooooXXXXXXXX................            ........",
"                ooooXXXXXXXX................            ........"
};
