/* XPM */
static char *eb4d4460044e4d9cbbe6ecbd293b2d5c[] = {
/* columns rows colors chars-per-pixel */
"80 80 114 2 ",
"   c gray100",
".  c black",
"X  c #996600",
"o  c #714B00",
"O  c #9C6800",
"+  c #FF3300",
"@  c #FFCC99",
"#  c #A36D00",
"$  c #A06B00",
"%  c #8C7054",
"&  c #E6E6E6",
"*  c #FFD49F",
"=  c #FFD9A3",
"-  c #543800",
";  c #8C1C00",
":  c #8A5C00",
">  c #BC9771",
",  c #FFD09C",
"<  c #E8BA8B",
"1  c #EFEFEF",
"2  c #FFDFA7",
"3  c #BCBCBC",
"4  c gray55",
"5  c #FFDBA4",
"6  c #68533E",
"7  c #947659",
"8  c #E62E00",
"9  c #858788",
"0  c #785000",
"q  c #33291F",
"w  c #F5C493",
"e  c gray96",
"r  c #FFE6AC",
"t  c #4D3E30",
"y  c #291A00",
"u  c #FF5530",
"i  c #4B3200",
"p  c #2A2219",
"a  c #7C674D",
"s  c #664400",
"d  c #C69F77",
"f  c #F13000",
"g  c #827668",
"h  c #815600",
"j  c #6F4600",
"k  c #D7D7D7",
"l  c #B4906C",
"z  c #A08060",
"x  c #2E1F00",
"c  c #D7AC81",
"v  c #201500",
"b  c #0E0000",
"n  c #FF8960",
"m  c #FF2300",
"M  c gray30",
"N  c #7C5B2E",
"B  c #3E2900",
"V  c #350000",
"C  c #75511A",
"Z  c #36393D",
"A  c #4C3300",
"S  c #820300",
"D  c #89847F",
"F  c #FF6C45",
"G  c gray78",
"H  c #480000",
"J  c #99938B",
"K  c #FFBB8A",
"L  c #314648",
"P  c #9F9F9F",
"I  c #564E44",
"U  c #E64826",
"Y  c #801A00",
"T  c #E68C65",
"R  c #AEACA9",
"E  c #FFA679",
"W  c #4D0F00",
"Q  c #AB8D8B",
"!  c #373C2E",
"~  c #856747",
"^  c #544333",
"/  c #A06D68",
"(  c #D72B00",
")  c #B63A29",
"_  c #FF7C54",
"`  c #B8884B",
"'  c #E8A87D",
"]  c #AE7A2B",
"[  c #CF9D62",
"{  c #8E2F1A",
"}  c #C8371A",
"|  c #B12B00",
" . c #001700",
".. c #95443B",
"X. c #59442B",
"o. c #473800",
"O. c #2E0000",
"+. c #BE5C3E",
"@. c #C22700",
"#. c #757576",
"$. c #240E00",
"%. c #6C4844",
"&. c #6E6359",
"*. c #413120",
"=. c #462000",
"-. c #373939",
";. c #5A2100",
":. c #A86000",
">. c #211A00",
",. c #AB7253",
"<. c #E79A71",
"1. c #C63D20",
"2. c #FF7D54",
"3. c #FF441D",
/* pixels */
"                                                                      M . . . . . . . &                                                                         ",
"                                                                  & 3 6 - - - - - - i R G                                                                       ",
"                                                                  3 . : $ O O O O O # . Z                                                                       ",
"                                                                  3 . : X X X X X X X : 0 Z G                                                                   ",
"                                                                & R b : X X X X X X X O : . 3                                                                   ",
"                                                                . i # $ O O O O O O O $ : . 3                                                                   ",
"                                                        1 9 k   . x - - - - - - - - - - A . #.4 4 4 4 4 P                                                       ",
"                                                        1 . 3   . . . . . . . . . . . . . . . . . . . . M                                                       ",
"                                                      Z . # =.. # $ $ # # # # # # # # $ $ # - . # $ $ $ : . 3                                                   ",
"                                                  & 3 6 s $ o i O X O 0 o o o o o o o X X O o i O X X X : i J 3                                                 ",
"                                                  3 . : # X O O X X $ v . . . . . . . : $ $ O O X X X X O # =..                                                 ",
"                                                  e 1 I B $ X X X X X : : : : : : : : B >.>.0 O X X X O : b R &                                                 ",
"                                                      #.I : : : : X :.:.:.: : : : : : ;.W H j : : : : : 0 . 3                                                   ",
"                                                        1 . . . . ; + + 8 . . . . . . f + + ; . . . . . . . 3                                                   ",
"                                                      P J d 6 . . W ; f 8 . % > > % . 8 f ; W . . 6 d q -.3 &                                                   ",
"                                                      Z y r % . . . . f f . > * * > . f f . . . . 7 r *.Z                                                       ",
"                                                  3 . w w . > 2 . . . . ! 5 , @ @ , 5 ! . . . . . . . w w . 3                                                   ",
"                                                  3 . < < . > * % 6 . a z , @ @ @ @ , z a . 6 7 . . . < < . 3                                                   ",
"                                                  3 . < < . l , 5 d . < * * , @ @ , * * < . d r . . . w < . 3                                                   ",
"                                                  e 1 &.6 < w * q 7 < @ < p d , , d p < @ < 7 q w z . *.&.1 e                                                   ",
"                                                  e 1 M *.w w * . a < @ < p d , , d p < @ < a . 5 > . -.#.1 & &                                                 ",
"                                                  3 . . . . > 2 . . . < , * , @ @ , * , < . . . 2 d . e e . . .                                                 ",
"                                            3 9 4 g j l z . 6 % > > l w @ @ @ @ @ @ @ @ w l > > % 6 . 9 D j o j 4 4 9 1                                         ",
"                                            4 . . i $ @ w . . . 2 * , * * * , @ @ , * * * , * 2 . . . . $.$ O # . . . 1                                         ",
"                                      -.. . j # # o . . *.2 7 . . a 5 q . . l * * l . . q 5 a . . 7 2 ^ y $ X X $ $ # b . . 3                                   ",
"                                3 3 G 6 - - h O o N 7 p t = % . 7 z > 7 % % l > > l % % 7 > z 7 . % = t y $ X X X X O s - i J 3                                 ",
"                                . . . : $ O O $ . % r *.q = % . 2 > . < * 2 % . . % 2 * < . > 2 . % = q b # O X X X X O O $ i .                                 ",
"                            P M : : : X X X X O : C t c < * % . = > . < < q l < < l q < < . > = . % * < c b 0 O X X X X X X : : M P                             ",
"                          & D b $ X X X X X : : : s . < , * % . = > . c c . l < < l . c c . > = . % * , < . s : X X X X X X X $ b D &                           ",
"                        & . j # X X X X X O A . . . . < , * % . = > . . . . . . . . . . . . > = . % * , < . . . # O X X X X X X $ j . &                         ",
"                        & . B A O X X X X O - . 0 - . < , @ c l * > . . . . . . . . . . . . > * l c @ , < . - 0 A o O X X X X X O o . &                         ",
"                        & . . . $ X X X X O - . # o . < * @ @ , , l . . . . . . . . . . . . > , = * @ * < . 0 # . i O X X X X X # 0 . &                         ",
"                        & . 0 # X X X O O $ - . $ O # . q = , @ @ , 5 ^ W + ; . + + + W . . > = . a 5 q . # A . # $ O O O X X $ . . . &                         ",
"                        & . - o O X O 0 o o B . $ X $ y q > < , @ @ * t V @.| ; @.@.@.V p % c * a z d q y $ o A o o o o 0 O X O A B . &                         ",
"                        & . . . $ O # b . . . . # $ # x . . > = * , * *.. . @.m . . . . *.= * * 5 > . . x $ $ # . . . . b # O X $ o . &                         ",
"                        & . s : O 0 . c < < < < . y x . t w 7 t t z * < < < K K < < < < < * z *.t 7 w t v # s . < < < < c . 0 O O o . &                         ",
"                        & . o $ : C q < , , , * q q . . ^ 5 % . . a < < < < < < < < < < < < 7 t t 7 w 6 X.: N q * , , , < q C : O o . &                         ",
"                        & . o # . % = , @ @ , * = d . . *.= % . . . . . . . . . . . . . . . > = = > . < w . > = * , @ @ , = % . # o . &                         ",
"                        & . o # . % * @ @ , > a * > . z d * % . d > > > > d 6 . . . . z > > < @ , > . < < . > * a > , @ @ * % . # o . &                         ",
"                        & . o # . % * @ @ * a . 2 d . w = 5 7 . = , , = = * % . . . . w = , , @ = > . < < . > 2 . a * @ @ * % . # o . &                         ",
"                        & . o # . % * @ @ , * 2 . . . . . . . . * @ = p p = * 2 . 7 r q p = , * . % 5 , , 5 % . 2 * , @ @ * % . # o . &                         ",
"                        1 9 a j % > , @ w l < = . . . Y Y . . . = < > 7 7 > > > % z > 7 7 > < = . % * d d * % . = < l w @ * % . 0 - . &                         ",
"                            4 . 5 , @ , < . > 2 . . . f f . . . 2 > . w w . . . r > . < < . > 2 . a 2 ! ! = % . 2 > . < , * % . . . . &                         ",
"                            4 . * @ @ , @ < 7 t : s . 8 + 8 T < q 7 w 6 t . z w q 7 < @ @ < 7 q w T u 8 U = % . t 7 < @ @ * % . X s . &                         ",
"                            4 . * @ , < < * % . # o . 8 + u E = p z 5 t . H d 5 . % * < < < 7 q w T m + u = % . . % * < < < ~ b # o . &                         ",
"                            4 . 5 , * q *.2 % . # o . 8 u = , * = * * ! H m E = . % = *.. . > 2 . S + + u = % . . % 2 q . . o # O o . &                         ",
"                        1 9 a j % > = t p 7 N o $ o . T E , > % % > * ) 1.E K = . % = t V @.<.* > ,.S f u = % . 0 N % C o o s A $ o . &                         ",
"                        & . o # . % 2 ^ . . o $ O o . < = * % . . a = u u * * 2 . % = ! V m E , * l . 8 u = % . # o . : $ # - . # o . &                         ",
"                        & . . . 2 > . . x # O X O o . f 3.= % . + 2.= u u = a . . % = u u 5 , @ @ , 5 u u 5 % . $ O # $ : . . . # o . &                         ",
"                        1 9 M . = c % p v o : X O o . _ n * > a m _ * n n * % . . % * n n , @ @ @ @ , n n > 6 . $ : o o o - x . # o . &                         ",
"                            4 . 5 * 2 t . . o O O o . w = * = 2 m 2.= , , = % . . % * * * @ , , * * * = < . . . # o . . v # - . # o . &                         ",
"                            4 . ^ t t h 0 . o O O o . t t t t ! + } ! < K u { . . % = F F * [ ] t t t t X.: A . # o . 0 : $ - . # o . &                         ",
"                          & D $.. b v : : . o O O o . y y y y  .+ | . d ' f Y . . a < U U < ` X v y y y B # - . # o . : O O - . # o . &                         ",
"                        & . j # . - # O : . o O O o . : $ $ $ $ X s . . . . . . . . . . . . s O $ $ $ $ O O - . # o . : X O - . # o . &                         ",
"                        & . o # . - O X : . o O O o . : X X X X X : o o o o o o o o o o o o : X X X X X X O - . # o . : X O - . # o . &                         ",
"                        & . o # . - # O : . o O O o . : X X X X X X O O O O $ # # $ O O O O X X X X X X X O - . # o . : X O - . # o . &                         ",
"                        & . o # . . . : : . o O O o . : X X X X X X X O O $ i . . i $ X X X X X X X X X X O - . # o . : O $ - . # o . &                         ",
"                        1 9 a o - - - o s . o O O o . : X X X X X X O 0 o j g 4 4 g j X X X X X X X X X X O - . # h A o o o s - o a 9 1                         ",
"                            9 . # $ # v . . o O $ o . : X X O $ $ $ # b . . 3     3 . : $ $ $ $ X X X X X O - . # O # v . . o # . 9                             ",
"                            1 1 . s $ : : : X $ v - : X X O s x y y b G & & e     e 1 I $.y y $.$ X X X X O - . x s $ : : : - . 1 1                             ",
"                                Z 6 : : : : : : v s O X X : i . M M -.1               #.M M M M : : X X X O s x . i : : : : 6 Z                                 ",
"                                  3 . . . . . . # O X X : . . .                                 . A $ X X X O # . . . . . . 3                                   ",
"                                  & 3 -.v 0 o o O X X X X o o j 4 3                         3 4 j s A : X X X O o o 0 v -.3 &                                   ",
"                                      -.. # $ O X X X X X O O # . 9                         4 . # o . : X X X X O $ # . -.                                      ",
"                                        1 . o O X X X X X X X $ . 4                     & . j # X O $ X X X O O $ j . 1                                         ",
"                                        & . o O X X X X X X X O i g 3 e                 & . o O X X X X X O h o o a 9 1                                         ",
"                                        & . j $ X X X X X X X X $ j . &                 1 . o O X X X X X O - . . 9                                             ",
"                                          & D b $ X X X X X X X O o . &               #.I : X X X X X X X $ - . 1 1                                             ",
"                                            4 . $ X X X X X X X : N Z &           e 1 M $.$ X X X X X X X : A .                                                 ",
"                                            4 . # O X X X X X $ . 4               3 . . x # O X X X X X : . . .                                                 ",
"                                  k 9 4 4 4 M . - o O X X X X $ . M 9 1         9 / @.V v - h O X X X X : . . . 4 4 4 4 P                                       ",
"                                  3 . . . . . . . o.# $ $ $ $ # . . . 1         . ; + V . . j # $ $ $ $ : . . . . . . . L                                       ",
"                                . ~ 5 = = 2 n + + @.. . . . . . + + + V -.      . ; m K = 2 % . . . . . . . @.+ + + + + f . 3                                   ",
"                            k 3 ~ > , E E E F + + ( ; ; ; ; ; Y + + + H M       . ; m K @ E +.; ; ; ; ; ; ; ( + + + + + f S Q 3                                 ",
"                            9 . 2 * = u m m + + + + + + + + + + + + + H M       . S m K K m + + + + + + + + + + + + + + + + S .                                 ",
"                        & L ) 8 u u u + + + + + + + + + + + + + + + + H M       & R O.U u + + + + + + + + + + + + + + + + + f f L P                             ",
"                        & L ) 8 + + + + + + + + 8 8 8 8 8 + + + + f 8 %.#.        G L @.8 8 8 8 8 8 8 + + + + + + + + + + + f f L P                             ",
"                            9 . + + + + + + + + . . . . V + + + + @.. 1               L . . . . . . . 8 + + + + + + + + + + S .                                 ",
"                            k 3 S ; ; ; ; ; ; S G 3 3 3 R S ; ; ; / 3 e               G 3 3 3 3 3 3 G ..; ; ; ; ; ; ; ; ; S Q 3                                 ",
"                                . . . . . . . .         & . . . . 4                                   M . . . . . . . . . . 3                                   "
};
