/* XPM */
static char *Free_Converter_com_door2_54533458[] = {
/* columns rows colors chars-per-pixel */
"64 64 70 1 ",
"  c #020202",
". c #090503",
"X c #070803",
"o c #090906",
"O c #0D0C0A",
"+ c #110F0C",
"@ c #12110E",
"# c #151412",
"$ c #191614",
"% c #171813",
"& c #1A1916",
"* c #1D1C1A",
"= c #211F1C",
"- c #1F201B",
"; c #23211E",
": c #262422",
"> c #292623",
", c #2B2926",
"< c #2D2C29",
"1 c #312E2B",
"2 c #33312E",
"3 c #353431",
"4 c #393633",
"5 c #3B3936",
"6 c #3E3C39",
"7 c #413E3A",
"8 c #44413E",
"9 c #464441",
"0 c #494643",
"q c #4C4946",
"w c #4E4C49",
"e c #514E4B",
"r c #4F504B",
"t c #54514E",
"y c #565451",
"u c #595653",
"i c #575853",
"p c #5B5A56",
"a c #5E5D59",
"s c #615D57",
"d c #615E5A",
"f c #5F605B",
"g c #63625D",
"h c #68635F",
"j c #666561",
"k c #696662",
"l c #676863",
"z c #6B6965",
"x c #6E6D69",
"c c #716E6A",
"v c #6F706B",
"b c #73726D",
"n c #767571",
"m c #797672",
"M c #7B7975",
"N c #7E7C79",
"B c #817E7A",
"V c #84827D",
"C c #878581",
"Z c #898682",
"A c #8C8985",
"S c #8F8B88",
"D c #918E8A",
"F c #95928E",
"G c #969591",
"H c #999792",
"J c #9C9994",
"K c #A29F9B",
"L c #A8A5A0",
"P c #AEADA9",
/* pixels */
"faarrwfjiwajaavjfrvllpqtfflNvsfssisw9uhtpreudknnxxzxnNnvjxMDGarj",
"giiwywqqyfajjilxiifilfpiiMvvnbvbzip8qykw0wwepjkkpjjjnxzzzjCnNnlg",
"it8yywwyiafjiryarffiffiiijflvNbvgfpiytew9t09wlnjpwaxjxnxnnaivAvg",
"wtiiyq9wywajaafjqirrpflfffiilnfgggfseaddiitr0ukxpw9jxxnnjnCznCNy",
"jiwirr69yralvallfffiilgsipazlnftirrjpiyrilbvaqusiyajaapjlxzgyiaj",
"fgityyirfnjinnxnvlfirrlzffiaflffagyyrapitplljipyyywwaajjjnxnnaay",
"fiflalywlzfypnNnfqqqrqtsvjftifrfjzljiwrwr9tixveq99yaajjajxxpaiia",
"llfjaxjtgxafyjjrlf7080euirrrrisiavapyy0yyj7qgt0766yauyypfgzawxga",
"zvgbjjztACCAGCgyBhcBccVJDALHAPDkCjVMVcmccbhkBBduVmmZSNy<ajxxigaa",
"vbjxkjcdlvNamnw6BButuqthehkBnkx:Avzcshssessuhhq1dVyxcdw<xxnxdjix",
"vvjfakesBxdyuwu3zs7qtueq0qquae6$VBgysqqqee8q774=ddq9yu8<ggNxxjpj",
"lNNxgbxeMxpypw93Vhq708s87tewye6&Ahttutue888u077:nuq0098:aalagiya",
"fllldkhece00tt4#Ake0uqqq770eya5*Hbssgt8tt87eeu7>Vt06093#9yyyreix",
"javlchkecs00994=Mkt7t0e770eeqy3#VMp88888eqeee041Dhe8963:yiiyaiwa",
"jiBCzBcqzs009w1=cq777747721>3<:Ohty8q5524441771>Kc0098<:wwfajfyj",
"vxlnzBz8zt0etq4,;1<><,;$*>>,:,<&:54252:%&&=,21><SBe8w9<<raajvnjf",
"fxnxnnx9Bh79eq63                                BBt0e04>0hceesch",
"wqplajayBs79uw3<                                Fktes01>0hchsuuu",
"y66wpjw2se44451>          oO                    BB5544=>1qshshhc",
"xj96iw96=,=>11,<   Xo oXoooO O OX o X o  XXX    +4>>>==+>17euhsB",
"mcmmNSNDBZBcZHB*ooooooOoOOOOOOOOXooooooooooo .  BBBBBBBcmSDHBch$",
"dhtewpuptusshhd4oooOOOOOOOOOOOOOoOOoOOOOooooo.o hceqessBhehhche1",
"cd86yeapu00t7q7,ooO#@###O##OO@@@@####@##O#OOOOO.u075800use0ese7>",
"Nde8uqppq770tt71OOO###&&#**##**#&&&#&##*#&&#@+OOBs07esheuu7ees41",
"Zx90q0uehqeqtq0,OO@@##&#####@#@#@@#@@@#&$+$+#+..chseesesuuueeee4",
"Vxu0teqeeteee01,O@@###&#&*##########@###$$$##+OOSh0eeeeeueue0e41",
"st007q9qe04474,$O@#&*#&&##***&#**&&****&$=$$##+O0e400447874471>=",
">041>1<==,1,1,>*@##***&&*==*******&&****===$###+>4>=>1=$=>>>1>>=",
"113:*##@BuyBuMt=@#**:<:::<<:<::*:::::==:=====$$$BJKJJDc11000000u",
"8407<*# ch0uaa95##&:<<<<<<<<<<::<<::::<<111>>>=$cmFcVmu47eee0e0e",
"uu006:@ su70a97>&#=<<<339633<<<<<<<:<<<3144>>>>$SBhcsuu17suu0esu",
"dst093>.k074wq7;##=*:<<:<<<3<<:***;*;;::>=>==$$$SBhes04114essu0s",
"qet7440.cq7eet8;#&*:<<<<<:<63**<<::==*::**::*#*#Gvjwa903<48wq9yw",
"040017s.Bu7st88>#&*<<<<<<363362<<<::<:<*<<:::**#Nvywy091,6323549",
"11781e0.ksehue1$#**<366666626962<:<<<<<<<<<<:***njrr7w4*:;<<::<3",
">111,Bq+cceets7$&*:<3366699699933333<<<<<<<3<::#Nxyit91O226:1341",
"71$$$1u.csttet8>*:<<33696w9966899663333<63663<<*Nyyuy04*0u0q11:<",
"1t4+.+$+Feetque:*<336999ryyiyq9rw9666999999333<:Nje0q03*wtyphe92",
"771+$$.+Hh00tq7>#&*:<<3<333<<33<<<3<<3<:633*<<:&xpuq9e5:kkccBe7>",
"170>+$=.Hhu0eq7<#&::<:<<363<<523333<36<<3<33::**xyuyye51tudueus1",
"007441=+Vcsesu71#*:<<333549923336666696363:<<<:*zs8trr2<aawap8q8",
"hhhhsh=+bxeude8=*:<<<3399wr9863699666666669663<*ze58gy61aq0tt14y",
"BBBhhs1+xy4qz8>>*:<3669w9ry096699w669999699663<*se1182::17ww2>8h",
"hsuBBBs+*42,w4>=*:<3336999w096689rrr9w999w9666<:$>;<<<**#*<678ez",
"shshhBu>CjyClCw<:<<366697999777e99999rw9r99r666<VhbcMVj<1711t80h",
"ssuscuh+nnqyfxw6#*-*-*-*><,:1,=,<<663<33<<<<<::*hcesasy7$>,78u7s",
"tsthhse.ve9wyw3:#&***:<:*:::<,=><<33333<<<:::::&zu8qei04&:=,$>7e",
"ssssss0$Nw36yw9:##&***:-=*:;>>>><<<<:3<:::*:*:*&ze70ew72,24dq.*q",
"u0tsseeeBe7eee0>chhhBBBBBDBBBVb$BchhhBcmBVFHBmc=zstuqu8>40usVz;>",
"=070ee4sZh8sse71sBueuhuhsshsshs>sctqquscsehccct2Vhet8w8>124uBch,",
"e$=,0477Bs0het1=ce74eesst00ueq8$u77570qquq0tue41Vusshur,&5uuhhbc",
"Bu++$$>1cBeuue7$Bs00uesuq770te7$mse4esseet80uuq1Vhsutig,>4euhhhc",
"shh415>0Bhsuq871Bsteqehehttqs07=ssteetuueettuhh0Vsqiis8438rshszs",
"hzhh741emhesue1>Bsuetquuuteuh07$Ms0eeqqstteqte04Vsqqrq8>2yifhuhs",
"zBscu>17h04704>>hu0500eht07575,.e8778717707587>;cs8775>,:qrshsls",
"zzshs1=4$4>171;$1741>>1>>11,7;1$>4>>>>$$>>>11;>*&>@--%O%:7tiilcl",
"yiiay5*=477t08741290785$O:3ww9qree014e00pi9q8qirq4665<,+>6qqqyii",
"iarwyw#*40euhses99980e8**:9rwaryus02tccs8rgjvlbgirqrtt8%<38636qf",
"655yfw*#ees0ssu0ueqw4ue=3:<ripipes0=qsut888ippftqqqpqfr+,<2<2,46",
";<<3a9=O77se70u04uu815>;9<*wafgi080$547et8rriprqqqqrpqx%O%-435,,",
"#O:3<9:&@@&471>>:550962<6w*6tyw6886%+>-568rqgr8638risqvy%++-:-%%",
"w,&:15,:*>&;*,,>:<6p933#369944,268q5o%>1825qyitw856qhilr22:366ri",
"avjaf2++><#;>77,94663:3O##;62>%%8rts8O->4860faagl8q8tr838wgippip",
"wijlGl4**>&=>42,32:::***#*#<86:&rrw8u2+%;6r00rirr9ry5::68ylbvltq"
};
