/* XPM */
static char *d5a08ef175f8419bb43be0adb31281c0[] = {
/* columns rows colors chars-per-pixel */
"64 64 37 1 ",
"  c #7B560F",
". c #86611A",
"X c #88631D",
"o c #8A6722",
"O c #916C25",
"+ c #956F28",
"@ c #937029",
"# c #99742D",
"$ c #9C7731",
"% c #9E7A33",
"& c #A17C35",
"* c #A47F38",
"= c #A6823B",
"- c #AA853E",
"; c #AE883F",
": c #AC8740",
"> c #AE8A43",
", c #AE8D48",
"< c #B28D45",
"1 c #B48F48",
"2 c #AF9149",
"3 c #B59046",
"4 c #B5924B",
"5 c #B9954E",
"6 c #BD994F",
"7 c #B79550",
"8 c #BA9750",
"9 c #BC9A53",
"0 c #BF9D58",
"q c #BFA159",
"w c #C09D56",
"e c #C19F59",
"r c #C3A25B",
"t c #C8A65F",
"y c #C8A762",
"u c #CBAA65",
"i c #D4B16D",
/* pixels */
">33<5<551<<5>5559<14<111<<55551w5141555122465534724488855><>1551",
"3455411513<<*151<34<<1<:1161www555w15573<246284342447888<><:>811",
"3333<1145w1115<51252<11<551<>57855544875522525662245<5185<><15<:",
"543;*111331551:1<<44<1755>1<4131555147555538654765245w815><5881<",
"ww51:151<5585511-23<4437<<50551w565576887766453334717457741<1151",
"63111:1:::5815817>22674<655598w7562655689652223<<<>>117>><1<1<50",
"5111315<:>198787r4798777885888713424227674585<<3<1<1<>1<<<<71<18",
"3353<5w1558w75808qt9448q008888774<2362785542<25444<1171<>1<<<555",
"<>3343721078w81rqq0t999978w97558w484426472444555<71171>:>-,1<541",
"4445458577wwww70rrr945775w711w90w3><2454646223321<171111<>>1,741",
"8757528551ww777499974499w99e07798wq82782q42455<41<1<<11<><>1>4,4",
"9679677787w7579088887429e9e7e70988<56866244488441:1*&&=:>1113458",
"7778999998989975442447490797000ew65484545666463>>1>X<7<<><117515",
"45257247q8825457482427447744<1706522445>869qq6<31,:,<1:1><1311<1",
"99578789548909892848499777778e0765684<37886qq2>37>17w471143411>4",
"77558489q74458998744289998698007><885q952962862<<7714117w1313114",
"2635456379ww690e0897,7>o:000y8172262695699998424771735<253<<1111",
"345855w74&$69e9890980e:i0707&177684998q8q9998484175543<<33<<<<><",
"53<335w653944-400e099:r07t*:77>,6;465979q7799788:<1555555511<><<",
"64<44<>-,2:=:789e9tr7,070551:-+79>76845qq9999785<4886558341<<><1",
"51111155429599q89e9697195::<;5152%299q99698q7555778474551<;;>>>>",
"<1555531459qq788994>,,7955<1651<#o9q8q9q99893758555587731<;<<<1>",
"344<221449889980wteyw1111156<1w5q99q68q9qq681958788999721<<1<<<;",
"3665344958qr9q98771w84w7155we5:1=699q629q99849435747775211131<;<",
"434362679q66q9qq965788555w1<5<>597989q99w11<5555575651<315111<;<",
"643144762qqqq9rr7w90688ww551><51288q99q96w55175411115<15131<<<;;",
"6516648899q69qq9rre669w5w551<5>558q98qq9ww1541511<<<<<<<<11<;3<;",
"71552459999q79qq990975651w1<<<*18767298965155:11<<11115351<:;335",
"458877879947:qqqr97909w661<-;;:<887997951511111<:<>><<<<<11<3311",
"31988q5399qq9q92,70yrqww6<<;:><58579q999655563<<11<;<333<11<1343",
"55343755q99qq2qyuur0096w5<<1155882999989516w6<<*<<>-*33<<<335511",
"4454<9299qqqqqyq90999q9e511115w8699q98995611;1311<<><33<13513111",
"7171577800000www00wwww5555115wwwqqqr6999w:1:<<5555;<<5515515<<15",
"<777789511555www55wwwwww55wwwwww989q858958111w51<53355551555<111",
"471<<70758w0www5www5ww555www55wwqqwq989q7ww651555535551<1511*<<<",
"<,<<18711555w0w000w555w55515555wqqr99899484115613<53115151111<<<",
"444,17111111111115w155555555555wq9q9q88847 >174<<<35111<<<<<1111",
">445715511111<111111155w5ww55www0qq99985,:O#*41:311<13<;*<<<<5<1",
"><><<<55711<1<<:1<1<151511551155999998424<:<*<<1<<3<<11<<1<<*<<<",
"3141151111<:1<<<<:<<15115<<5w55w8q8878441741:*<4<*<<;11;<1535<<1",
"41<<<-<4<11<<<<<::<;<;<<1<15665589q95275105>>**1><4>4<>><15<5511",
"<131<-<15;<<<<:<<<<;;;<1151155w589q857523871::**:.<1;<4<15635151",
"411531<111<<;1<1:<-:;<;<<156;*;1779955<-6156<><-*13:><8>55555555",
"511<48461<<1<;1;<5<<1511<<55<116948975141441:<<><4-;44<4<1551115",
"1<1<1145<15;<;15666155161111<<<5233w4151<1<>>>><,,45,2<<>147<>15",
"11515141<<-<;+55655<11<;<;<1;;;<-53w8<1:61<<<><<14,5838<11471115",
"11515ww151515<<15561661;<;;*;;1<366w53w1511<><<->1722<324,<11817",
"1w55515155511<<15w66<<<<;*<;;;<1757611<<-*>11<:<12555842,411<111",
"7187784254<>1<>&551111;<:<<5115ww116<<-<;:<15111136555111<<,774,",
"57784424:>:>1<<1:11111;<;;;<1<1<:1111<&511111;51,<145551:<<<4874",
"7177871<,>1-11-1<::-1<1<<;;151<1:<11;-&<511<<:1;1131564<<1<<2>>9",
"4478454544=:>3-=:<<:5<<;<;<<<5:<:<:1:;111111111;<3131111<:<1455,",
"774,2972<5ww-**><<<<5:;;:<;1<$;;:1<<1<1<1<1111<<;>11<<3332324247",
"4484,22>5:<:1$311<-;1;;;<<<<1<<;:11<<<<51<<<11<11>>1<<131*=44474",
"744552<:11551:;;:1-<<<<;<<;515<<<<5<<5<<:;;:111531>1><11112<2799",
"97775,<1113:111><<*:*<;<:;11111<<1111<*+-:1;<<<11>>>><111<>,2244",
"1>71851<115<<115515<<<1<<<15511111<;-1;;&;1<<;;;>>15<5551414441<",
"7<111<<>:11<11:111<;<<<1<<<1511<1111<;;;<11511;;><51<513654<1<,<",
"111<1<<<:<<1<54111<-<<;<<<511<<51111<;<511551<<;><15<1156<<>11<>",
"515511<<:<::11<511<<<<<<<;<115:11111<<51156w15<<<1115555<<<<4144",
"7551<<515<;11<13111<<<<-;;<155<<15<<;<1;5551611<56155151:<<<:<34",
"551<<<5<561<55115<11<:<<;<1115<155<<-<15151111<51155w56531:<<581",
"155<<<51165<<<3<11<<1;<<<<<<15511111111566511;151<5155ww1<<<<581",
"111<55w558511;<1<11<1<;;;11<115551<<15<1111<:<115561<1541<<<<151"
};
