/* XPM */
static char *_5152690786c471580fa41955c073c3a[] = {
/* columns rows colors chars-per-pixel */
"64 64 256 2 ",
"   c #9A945C",
".  c #A9A36C",
"X  c #B0A972",
"o  c #B3AD76",
"O  c #B4AE76",
"+  c #BBB37E",
"@  c #BBB47E",
"#  c #BCB67E",
"$  c #BEB77F",
"%  c #BFB488",
"&  c #BFB881",
"*  c #BFB882",
"=  c #C0BA82",
"-  c #C1BA83",
";  c #C1BB84",
":  c #C2BC84",
">  c #C4BE86",
",  c #C7BF89",
"<  c #C9BD91",
"1  c #CBBF93",
"2  c #CBBF94",
"3  c #C6C089",
"4  c #C9C28B",
"5  c #CAC48D",
"6  c #CCC78F",
"7  c #CDC790",
"8  c #CFC890",
"9  c #CFC991",
"0  c #CFC892",
"q  c #D0C499",
"w  c #D0C891",
"e  c #D0C993",
"r  c #D0CA92",
"t  c #D1CA93",
"y  c #D2CB95",
"u  c #D2CC94",
"i  c #D3CC95",
"p  c #D6CF97",
"a  c #D5C99D",
"s  c #D5C99E",
"d  c #D7CB9F",
"f  c #D6CE98",
"g  c #D6D097",
"h  c #D6D098",
"j  c #D7D199",
"k  c #D8D099",
"l  c #D8D09B",
"z  c #D8D29A",
"x  c #D9D29B",
"c  c #DAD49C",
"v  c #DBD59D",
"b  c #DCD59F",
"n  c #DCD69E",
"m  c #D8CDA2",
"M  c #DBCFA4",
"N  c #DDD1A7",
"B  c #DDD2A6",
"V  c #DED3A7",
"C  c #DDD7A0",
"Z  c #DED7A1",
"A  c #DFD3A9",
"S  c #DFD8A0",
"D  c #DFD9A1",
"F  c #DFD8A2",
"G  c #E0D4A8",
"H  c #E0D4A9",
"J  c #E0D5AA",
"K  c #E2D6AA",
"L  c #E0D9A2",
"P  c #E1DBA3",
"I  c #E2DAA4",
"U  c #E3DDA4",
"Y  c #E2DCA5",
"T  c #E3DDA6",
"R  c #E5DFA6",
"E  c #E4DEA7",
"W  c #E4D8AD",
"Q  c #E5D9AE",
"!  c #E6DAAE",
"~  c #E6DAAF",
"^  c #E5DEA8",
"/  c #E7DBB1",
"(  c #E8DCB1",
")  c #E6E0A9",
"_  c #E9E3AB",
"`  c #E9E3AC",
"'  c #EDE1B6",
"]  c #EEE2B6",
"[  c #EFE7B2",
"{  c #EEE8B1",
"}  c #F1E6BA",
"|  c #F2E7BB",
" . c #F1EAB2",
".. c #F1EAB4",
"X. c #F4E8BD",
"o. c #F6E9BE",
"O. c #FBF4BD",
"+. c #F8ECC1",
"@. c #F9EEC2",
"#. c #FFF7CC",
"$. c #FFFAC2",
"%. c #FFFCD1",
"&. c #FFFFD1",
"*. c #FFFED2",
"=. c #FFFFDF",
"-. c #FFFFF1",
";. c black",
":. c black",
">. c black",
",. c black",
"<. c black",
"1. c black",
"2. c black",
"3. c black",
"4. c black",
"5. c black",
"6. c black",
"7. c black",
"8. c black",
"9. c black",
"0. c black",
"q. c black",
"w. c black",
"e. c black",
"r. c black",
"t. c black",
"y. c black",
"u. c black",
"i. c black",
"p. c black",
"a. c black",
"s. c black",
"d. c black",
"f. c black",
"g. c black",
"h. c black",
"j. c black",
"k. c black",
"l. c black",
"z. c black",
"x. c black",
"c. c black",
"v. c black",
"b. c black",
"n. c black",
"m. c black",
"M. c black",
"N. c black",
"B. c black",
"V. c black",
"C. c black",
"Z. c black",
"A. c black",
"S. c black",
"D. c black",
"F. c black",
"G. c black",
"H. c black",
"J. c black",
"K. c black",
"L. c black",
"P. c black",
"I. c black",
"U. c black",
"Y. c black",
"T. c black",
"R. c black",
"E. c black",
"W. c black",
"Q. c black",
"!. c black",
"~. c black",
"^. c black",
"/. c black",
"(. c black",
"). c black",
"_. c black",
"`. c black",
"'. c black",
"]. c black",
"[. c black",
"{. c black",
"}. c black",
"|. c black",
" X c black",
".X c black",
"XX c black",
"oX c black",
"OX c black",
"+X c black",
"@X c black",
"#X c black",
"$X c black",
"%X c black",
"&X c black",
"*X c black",
"=X c black",
"-X c black",
";X c black",
":X c black",
">X c black",
",X c black",
"<X c black",
"1X c black",
"2X c black",
"3X c black",
"4X c black",
"5X c black",
"6X c black",
"7X c black",
"8X c black",
"9X c black",
"0X c black",
"qX c black",
"wX c black",
"eX c black",
"rX c black",
"tX c black",
"yX c black",
"uX c black",
"iX c black",
"pX c black",
"aX c black",
"sX c black",
"dX c black",
"fX c black",
"gX c black",
"hX c black",
"jX c black",
"kX c black",
"lX c black",
"zX c black",
"xX c black",
"cX c black",
"vX c black",
"bX c black",
"nX c black",
"mX c black",
"MX c black",
"NX c black",
"BX c black",
"VX c black",
"CX c black",
"ZX c black",
"AX c black",
"SX c black",
"DX c black",
"FX c black",
"GX c black",
"HX c black",
"JX c black",
"KX c black",
"LX c black",
"PX c black",
"IX c black",
"UX c black",
/* pixels */
"        C C C C n n n n c c c c g g g g c c c c u u u u z z z z Y Y Y Y C C C C l l l l h h h h w w w w i i i i 5 5 5 5 x x x x ",
"        C C C C n n n n c c c c g g g g c c c c u u u u z z z z Y Y Y Y C C C C l l l l h h h h w w w w i i i i 5 5 5 5 x x x x ",
"        C C C C n n n n c c c c g g g g c c c c u u u u z z z z Y Y Y Y C C C C l l l l h h h h w w w w i i i i 5 5 5 5 x x x x ",
"        C C C C n n n n c c c c g g g g c c c c u u u u z z z z Y Y Y Y C C C C l l l l h h h h w w w w i i i i 5 5 5 5 x x x x ",
"Z Z Z Z z z z z J J J J / / / / % % % % u u u u r r r r i i i i = = = = ~ ~ ~ ~ =.=.=.=.n n n n i i i i z z z z h h h h _ _ _ _ ",
"Z Z Z Z z z z z J J J J / / / / % % % % u u u u r r r r i i i i = = = = ~ ~ ~ ~ =.=.=.=.n n n n i i i i z z z z h h h h _ _ _ _ ",
"Z Z Z Z z z z z J J J J / / / / % % % % u u u u r r r r i i i i = = = = ~ ~ ~ ~ =.=.=.=.n n n n i i i i z z z z h h h h _ _ _ _ ",
"Z Z Z Z z z z z J J J J / / / / % % % % u u u u r r r r i i i i = = = = ~ ~ ~ ~ =.=.=.=.n n n n i i i i z z z z h h h h _ _ _ _ ",
"K K K K ] ] ] ] @.@.@.@.f f f f k k k k h h h h v v v v v v v v n n n n Y Y Y Y ~ ~ ~ ~ ( ( ( ( 3 3 3 3 8 8 8 8 u u u u +.+.+.+.",
"K K K K ] ] ] ] @.@.@.@.f f f f k k k k h h h h v v v v v v v v n n n n Y Y Y Y ~ ~ ~ ~ ( ( ( ( 3 3 3 3 8 8 8 8 u u u u +.+.+.+.",
"K K K K ] ] ] ] @.@.@.@.f f f f k k k k h h h h v v v v v v v v n n n n Y Y Y Y ~ ~ ~ ~ ( ( ( ( 3 3 3 3 8 8 8 8 u u u u +.+.+.+.",
"K K K K ] ] ] ] @.@.@.@.f f f f k k k k h h h h v v v v v v v v n n n n Y Y Y Y ~ ~ ~ ~ ( ( ( ( 3 3 3 3 8 8 8 8 u u u u +.+.+.+.",
"6 6 6 6 f f f f l l l l C C C C e e e e D D D D t t t t 9 9 9 9 u u u u p p p p x x x x Y Y Y Y c c c c z z z z c c c c & & & & ",
"6 6 6 6 f f f f l l l l C C C C e e e e D D D D t t t t 9 9 9 9 u u u u p p p p x x x x Y Y Y Y c c c c z z z z c c c c & & & & ",
"6 6 6 6 f f f f l l l l C C C C e e e e D D D D t t t t 9 9 9 9 u u u u p p p p x x x x Y Y Y Y c c c c z z z z c c c c & & & & ",
"6 6 6 6 f f f f l l l l C C C C e e e e D D D D t t t t 9 9 9 9 u u u u p p p p x x x x Y Y Y Y c c c c z z z z c c c c & & & & ",
"E E E E p p p p ( ( ( ( p p p p ( ( ( ( ( ( ( ( Q Q Q Q ( ( ( ( ~ ~ ~ ~ 7 7 7 7 u u u u ~ ~ ~ ~ d d d d : : : : D D D D 4 4 4 4 ",
"E E E E p p p p ( ( ( ( p p p p ( ( ( ( ( ( ( ( Q Q Q Q ( ( ( ( ~ ~ ~ ~ 7 7 7 7 u u u u ~ ~ ~ ~ d d d d : : : : D D D D 4 4 4 4 ",
"E E E E p p p p ( ( ( ( p p p p ( ( ( ( ( ( ( ( Q Q Q Q ( ( ( ( ~ ~ ~ ~ 7 7 7 7 u u u u ~ ~ ~ ~ d d d d : : : : D D D D 4 4 4 4 ",
"E E E E p p p p ( ( ( ( p p p p ( ( ( ( ( ( ( ( Q Q Q Q ( ( ( ( ~ ~ ~ ~ 7 7 7 7 u u u u ~ ~ ~ ~ d d d d : : : : D D D D 4 4 4 4 ",
"6 6 6 6 S S S S 0 0 0 0 -.-.-.-.i i i i ` ` ` ` Z Z Z Z N N N N h h h h ........n n n n > > > > 0 0 0 0 t t t t c c c c : : : : ",
"6 6 6 6 S S S S 0 0 0 0 -.-.-.-.i i i i ` ` ` ` Z Z Z Z N N N N h h h h ........n n n n > > > > 0 0 0 0 t t t t c c c c : : : : ",
"6 6 6 6 S S S S 0 0 0 0 -.-.-.-.i i i i ` ` ` ` Z Z Z Z N N N N h h h h ........n n n n > > > > 0 0 0 0 t t t t c c c c : : : : ",
"6 6 6 6 S S S S 0 0 0 0 -.-.-.-.i i i i ` ` ` ` Z Z Z Z N N N N h h h h ........n n n n > > > > 0 0 0 0 t t t t c c c c : : : : ",
"# # # # A A A A 2 2 2 2 v v v v * * * * P P P P l l l l u u u u f f f f h h h h ( ( ( ( #.#.#.#.b b b b ~ ~ ~ ~ C C C C m m m m ",
"# # # # A A A A 2 2 2 2 v v v v * * * * P P P P l l l l u u u u f f f f h h h h ( ( ( ( #.#.#.#.b b b b ~ ~ ~ ~ C C C C m m m m ",
"# # # # A A A A 2 2 2 2 v v v v * * * * P P P P l l l l u u u u f f f f h h h h ( ( ( ( #.#.#.#.b b b b ~ ~ ~ ~ C C C C m m m m ",
"# # # # A A A A 2 2 2 2 v v v v * * * * P P P P l l l l u u u u f f f f h h h h ( ( ( ( #.#.#.#.b b b b ~ ~ ~ ~ C C C C m m m m ",
"c c c c h h h h ! ! ! ! z z z z v v v v t t t t ^ ^ ^ ^ O.O.O.O.C C C C q q q q h h h h i i i i D D D D J J J J u u u u ~ ~ ~ ~ ",
"c c c c h h h h ! ! ! ! z z z z v v v v t t t t ^ ^ ^ ^ O.O.O.O.C C C C q q q q h h h h i i i i D D D D J J J J u u u u ~ ~ ~ ~ ",
"c c c c h h h h ! ! ! ! z z z z v v v v t t t t ^ ^ ^ ^ O.O.O.O.C C C C q q q q h h h h i i i i D D D D J J J J u u u u ~ ~ ~ ~ ",
"c c c c h h h h ! ! ! ! z z z z v v v v t t t t ^ ^ ^ ^ O.O.O.O.C C C C q q q q h h h h i i i i D D D D J J J J u u u u ~ ~ ~ ~ ",
"L L L L A A A A ' ' ' ' ~ ~ ~ ~ H H H H i i i i ( ( ( ( A A A A | | | | *.*.*.*.- - - - b b b b f f f f M M M M u u u u v v v v ",
"L L L L A A A A ' ' ' ' ~ ~ ~ ~ H H H H i i i i ( ( ( ( A A A A | | | | *.*.*.*.- - - - b b b b f f f f M M M M u u u u v v v v ",
"L L L L A A A A ' ' ' ' ~ ~ ~ ~ H H H H i i i i ( ( ( ( A A A A | | | | *.*.*.*.- - - - b b b b f f f f M M M M u u u u v v v v ",
"L L L L A A A A ' ' ' ' ~ ~ ~ ~ H H H H i i i i ( ( ( ( A A A A | | | | *.*.*.*.- - - - b b b b f f f f M M M M u u u u v v v v ",
"; ; ; ; X X X X W W W W x x x x z z z z B B B B ~ ~ ~ ~ u u u u c c c c b b b b b b b b { { { { c c c c H H H H > > > > ` ` ` ` ",
"; ; ; ; X X X X W W W W x x x x z z z z B B B B ~ ~ ~ ~ u u u u c c c c b b b b b b b b { { { { c c c c H H H H > > > > ` ` ` ` ",
"; ; ; ; X X X X W W W W x x x x z z z z B B B B ~ ~ ~ ~ u u u u c c c c b b b b b b b b { { { { c c c c H H H H > > > > ` ` ` ` ",
"; ; ; ; X X X X W W W W x x x x z z z z B B B B ~ ~ ~ ~ u u u u c c c c b b b b b b b b { { { { c c c c H H H H > > > > ` ` ` ` ",
"F F F F G G G G . . . . Q Q Q Q 3 3 3 3 ' ' ' ' j j j j M M M M } } } }  . . . .) ) ) ) p p p p c c c c h h h h g g g g c c c c ",
"F F F F G G G G . . . . Q Q Q Q 3 3 3 3 ' ' ' ' j j j j M M M M } } } }  . . . .) ) ) ) p p p p c c c c h h h h g g g g c c c c ",
"F F F F G G G G . . . . Q Q Q Q 3 3 3 3 ' ' ' ' j j j j M M M M } } } }  . . . .) ) ) ) p p p p c c c c h h h h g g g g c c c c ",
"F F F F G G G G . . . . Q Q Q Q 3 3 3 3 ' ' ' ' j j j j M M M M } } } }  . . . .) ) ) ) p p p p c c c c h h h h g g g g c c c c ",
"7 7 7 7 Q Q Q Q R R R R < < < < C C C C f f f f b b b b k k k k C C C C b b b b z z z z $.$.$.$.u u u u u u u u t t t t + + + + ",
"7 7 7 7 Q Q Q Q R R R R < < < < C C C C f f f f b b b b k k k k C C C C b b b b z z z z $.$.$.$.u u u u u u u u t t t t + + + + ",
"7 7 7 7 Q Q Q Q R R R R < < < < C C C C f f f f b b b b k k k k C C C C b b b b z z z z $.$.$.$.u u u u u u u u t t t t + + + + ",
"7 7 7 7 Q Q Q Q R R R R < < < < C C C C f f f f b b b b k k k k C C C C b b b b z z z z $.$.$.$.u u u u u u u u t t t t + + + + ",
"] ] ] ] C C C C i i i i [ [ [ [ D D D D y y y y I I I I $ $ $ $ , , , , b b b b l l l l t t t t H H H H Q Q Q Q w w w w f f f f ",
"] ] ] ] C C C C i i i i [ [ [ [ D D D D y y y y I I I I $ $ $ $ , , , , b b b b l l l l t t t t H H H H Q Q Q Q w w w w f f f f ",
"] ] ] ] C C C C i i i i [ [ [ [ D D D D y y y y I I I I $ $ $ $ , , , , b b b b l l l l t t t t H H H H Q Q Q Q w w w w f f f f ",
"] ] ] ] C C C C i i i i [ [ [ [ D D D D y y y y I I I I $ $ $ $ , , , , b b b b l l l l t t t t H H H H Q Q Q Q w w w w f f f f ",
"%.%.%.%.~ ~ ~ ~ 6 6 6 6 o o o o t t t t u u u u i i i i X.X.X.X.J J J J o.o.o.o.~ ~ ~ ~ F F F F U U U U h h h h ~ ~ ~ ~ s s s s ",
"%.%.%.%.~ ~ ~ ~ 6 6 6 6 o o o o t t t t u u u u i i i i X.X.X.X.J J J J o.o.o.o.~ ~ ~ ~ F F F F U U U U h h h h ~ ~ ~ ~ s s s s ",
"%.%.%.%.~ ~ ~ ~ 6 6 6 6 o o o o t t t t u u u u i i i i X.X.X.X.J J J J o.o.o.o.~ ~ ~ ~ F F F F U U U U h h h h ~ ~ ~ ~ s s s s ",
"%.%.%.%.~ ~ ~ ~ 6 6 6 6 o o o o t t t t u u u u i i i i X.X.X.X.J J J J o.o.o.o.~ ~ ~ ~ F F F F U U U U h h h h ~ ~ ~ ~ s s s s ",
"K K K K m m m m f f f f 9 9 9 9 V V V V a a a a n n n n P P P P O O O O F F F F @ @ @ @ h h h h ~ ~ ~ ~ 1 1 1 1 9 9 9 9 J J J J ",
"K K K K m m m m f f f f 9 9 9 9 V V V V a a a a n n n n P P P P O O O O F F F F @ @ @ @ h h h h ~ ~ ~ ~ 1 1 1 1 9 9 9 9 J J J J ",
"K K K K m m m m f f f f 9 9 9 9 V V V V a a a a n n n n P P P P O O O O F F F F @ @ @ @ h h h h ~ ~ ~ ~ 1 1 1 1 9 9 9 9 J J J J ",
"K K K K m m m m f f f f 9 9 9 9 V V V V a a a a n n n n P P P P O O O O F F F F @ @ @ @ h h h h ~ ~ ~ ~ 1 1 1 1 9 9 9 9 J J J J ",
"f f f f T T T T h h h h ; ; ; ; &.&.&.&.S S S S 3 3 3 3 ' ' ' ' c c c c } } } } t t t t i i i i f f f f v v v v h h h h 3 3 3 3 ",
"f f f f T T T T h h h h ; ; ; ; &.&.&.&.S S S S 3 3 3 3 ' ' ' ' c c c c } } } } t t t t i i i i f f f f v v v v h h h h 3 3 3 3 ",
"f f f f T T T T h h h h ; ; ; ; &.&.&.&.S S S S 3 3 3 3 ' ' ' ' c c c c } } } } t t t t i i i i f f f f v v v v h h h h 3 3 3 3 ",
"f f f f T T T T h h h h ; ; ; ; &.&.&.&.S S S S 3 3 3 3 ' ' ' ' c c c c } } } } t t t t i i i i f f f f v v v v h h h h 3 3 3 3 "
};
