/* XPM */
static char *_5821b26d1e44cbbf9e3bd53c01bf5f2[] = {
/* columns rows colors chars-per-pixel */
"64 64 86 1 ",
"  c #795A00",
". c #7C5F00",
"X c #806300",
"o c #826500",
"O c #846500",
"+ c #856700",
"@ c #886900",
"# c #8B6900",
"$ c #8E7000",
"% c #907200",
"& c #927200",
"* c #947300",
"= c #967700",
"- c #977900",
"; c #997900",
": c #9C7B00",
"> c #9E7C00",
", c #9E8000",
"< c #9F8000",
"1 c #A28200",
"2 c #A38400",
"3 c #A58500",
"4 c #A88800",
"5 c #A98B00",
"6 c #AB8B00",
"7 c #AC8C00",
"8 c #AE8E00",
"9 c #AF9000",
"0 c #B29200",
"q c #B39400",
"w c #B59600",
"e c #B59700",
"r c #B69700",
"t c #B99900",
"y c #BA9C00",
"u c #BA9D00",
"i c #BD9E00",
"p c #BE9F00",
"a c #BFA200",
"s c #C0A200",
"d c #C1A300",
"f c #C2A500",
"g c #C4A600",
"h c #C4A800",
"j c #C6A900",
"k c #C7AB00",
"l c #C8AC00",
"z c #C9AE00",
"x c #C9AF00",
"c c #CAAF00",
"v c #CBAF00",
"b c #CCB200",
"n c #CDB300",
"m c #CFB500",
"M c #D0B600",
"N c #D1B600",
"B c #D1B900",
"V c #D3BA00",
"C c #D4BA00",
"Z c #D5BB00",
"A c #D6BD00",
"S c #D6BE00",
"D c #D7BE00",
"F c #D7BF00",
"G c #D9C000",
"H c #DAC000",
"J c #DAC100",
"K c #DAC200",
"L c #DCC300",
"P c #DCC400",
"I c #DDC500",
"U c #DDC600",
"Y c #DEC600",
"T c #DEC700",
"R c #E0C800",
"E c #929292",
"W c #D2D2D2",
"Q c LightGray",
"! c #DADADA",
"~ c gray88",
"^ c #E1E1E1",
"/ c #E4E4E4",
"( c gray90",
") c #E6E6E6",
"_ c gray91",
"` c gray92",
/* pixels */
"2fidglkkgkklllclkkllcnlNnmmmMMBVVBBNNmNmBMMmBBmmmmmmmcmccllkkkkm",
"$q558ww00wwirttuwtuuuiifdffkkckkccllkhllkkkcclkkkhfffaiuurwqwqwl",
"$8550wwwwtwwttruuiiiadfffffkkcccccclkccccxlckkkhgffddiiiiutww00k",
"$8778qwwtuuuutuuaiaffkkkklllcccmcccccccccccklkkfkkhhgfffaaaurq9k",
"$775`)))tutuuuuaaffkkkkxklkkccmccmmcncnncccccclkkgkkkkfg`)))r0qk",
"#777)~~!Euuuiuidfhkkkkccclccccccncnnmnnnnnccccllkkkkkkkf)^^!Erwc",
"$978)~~!Euiaaaaghkkxcccnmlcccmmmmmmmmmmmcnmccclclckkkhhk)^^!Eurc",
"%009`Q!QEiadffgkkxcnnnnccmmmBmmmmmmmmBMmmmncnnmcmccckkkk`W!QEutl",
"%qqqwEEEEgfkfkklcnnnnnmmmmmNNBCCBBBBBCCNNmmmmmmnmncclkckkEEEEiul",
"%qwriadfglkkkkkccmmmmmmmmmmCBCCCVVCCCBBBNNmmmmmmcccccckkkkfffium",
"%wwtidffkkglcccccNNmmMMM)~^^^^^^^^^^BACCBNNmNmmmNmmcccckkkkafiin",
"=wwtidfkkklnccmmmNBNmM^(~~~~~~~~~~~^!!CBCCBNBmmNMmmmnccckkhfffuc",
"=wwuifkklcccmnmmmmmN~)/~~~~~~~~~~~~~~~!WCBCCCBNNMMmmmmccckkkfdim",
"=wwuafkklcccmmMMNNN^/~~~~~~~~~~~~~~~~~~~!ACCBABBBMMmmnccckkffdam",
"%0tuafkklcmmmmmMBC^/~~~~~~~~~~~~~~~~~~~~^!ACCCCBBMMmmmmmcckkgfaN",
"*wwuakllcncnmmBVB)/~~~~~~~~~~~~^~~~~~~~~!^!CCCCCVBVMmmmcmckkkfaN",
";wtudflcccmmmVBC_^~~~~~~~~~!!!!!!~~~~~~~~~~WZZZZACNmNmmmmcckhhfm",
";ttifkccncmmVVCA)~~~~~~~~~!EEEEEE!~~~~~~~~~!EEAZBCBBmNmmmnclkhfm",
";uuahkcccNNBVABC)~~~~~~~^!EEEEEEEE!^~~~~~~^!EEAZCCCBCBBmmmcckkfN",
":dadhkcnmmNmBBBC/~~~~~~~!EEEFLFFFFD!~~~~~~^!EEAACACACBBNmmccckkN",
":fafhkcmnmmNNCBA)~~~~~~!EEEFLFJJHHHH!^^~~~~!EEFFCACCCCCmmnncclkB",
"<fdghklmmmmNBAFG/~~~~~~!EEFLLJJJHHLL^^^~~~~!EEFACCFCCCBNmmnmmkkB",
"2kffklcnmBNCCAVA)!~~~~~!EEJLLLJLLLLL(^~~~~~!EEFFACCCCCBNmmncmlcN",
"1hffhkccNBBAAFAG)^~~~~~!EELLLLLLLLLL^~~~~~~!EEFFFFCACCCBMmcmcllB",
"2fffhkccmmVAAAGJ)~~~~~~!EELLULLLLLLJ_~~~~~~!EELFFFACCCCNmmnnckkV",
"1fffkkncmmBAAJJJ)~~~~~~!EEJLLLLLLLL/~~~~~~~!EEFLJAAACBCNmncckkfB",
"1gkfkcnnNCFJGGJP)~~~~~~!EELLLLLLLL/~~~~~~~~!EELFFAAACCBBmccclkkB",
"1ffkkcccNBAJGJJU!!!!!!!!EELURLULL/~~~~~~~~~!EELJFFAAACCCmncxlkfm",
"1kflllmmmCAFJAJJUUEEEEEEEEULULUU/~~~~~~~~~!EEELLJFFACCCBmnccllkm",
":fkklmcmBCBAAJJJLLEEEEEEEELULUU/~~~~~~~~~!EEELLFFFFACCBCmmmcllkm",
":dklccmmCCCAAJJJJUURUURUULUUUL/~~~~~~~~~!EEELLLLFFAFCCBBmmmcckdm",
"1fkkcnmmCCCAAJJJJUUUURUUUUULL/~~~~~~~~~!EEELLLLFFFFAACCBmmcnckdm",
":fkkccmmCCCAFFFLLUUUURUULLLL_~~~~~~~~~!EEELLLLLFFFDDCCCCNNmcckam",
"<fkkcmmBCCCFFFLLLULLULLULLUL/~~~~~~~~!EEELLLLFFFFFDDACCNNmcnlkam",
"<ahkcmmmNBCAFFFLJLULULULULUR/~~~~~~~!EEELLLLLLFFFDDFACCCmmnnckim",
";ihkccmmNBCCAFFFFJLLLULLLLLL/~~~~~~!EEELLLLLLFFFDDDDACCNmmncckin",
":ifhlcnmNCCCAFFLLLLLPUJUULLU/~~~~~~!EEULLLLFHLHFDADDAZCNmmnnlkin",
":iafkkncnBBCCAFFFFJLPUUJLLLL/~~~~~~!EEUURLLLFHHHDFDAZZNnnmnllkal",
";uafkflnmBCCCAAJJJJLUPPJLLLL_~~~~~~!EELLLLLHHLFFDDDACCnCcmnllkdn",
"=uafkklnmNCCCAFFJJLLJPJJJJJJW!!!!!!!EEULLLLLHFHDAFAACCnnnnnlkkgc",
":udkkklnmBBBCAAAAAJJJJJJFLFLFLEEEEEEEELLLFLFHFFDFAACBBBmnnmlkkfm",
";uifgkknnmNBCAACGAJJJAJJLFFLLLEEEEEEEELFLLFFHFFDAAACANNmmcccklkm",
"%uifkklnmcmBBCCAAAAAGAJJFJJJFLLLLLJJHLHFHFHFFFDDAACBBBmmmccckkkm",
"*tifgkknnnmmNCCCAAAJAJJAJFFJLFLFFFLFFLHLFLFFFFDDACCCBNmmcmcclkhc",
"$uufkkkccnnmNCCCVVGVAGAGAFJA`))))))QFFLFHHFFFDDACCCCmNmccccckkhc",
"$tudfklllncmmBCCVBGGGVGVAAAA)~~~~~~!FLFFFFFDDDAACCCBmmmmncclkkdn",
"%uudkklmmmnmmBBAABGVGVVGAAAA)~~~~~~!EEFFFFDDDDZZCACNmmmnlnllfkal",
"%tuahklnccmmmBCCBCVVVGVGAAFA)~~~~~~!EEFFFFDDDDZZCBBNmnmmcllkffac",
"$riafkkcnnmmmNBVCCACCBCCCCFA)~~~~~~!EEAAGAACCACBCCCNmmmcclkhfdwn",
"$wuifkllnlcmmmBBCCCCCACCACCC)~~~~~~!EEFAAACCCCCABNNmmmcnclkfaain",
"$wtuaflllcmmmmNNBCABBACACCCF`~~^~~^!EEACBCCCBCVVVmmmmcclkkhhdiwl",
"$wrtidkllccnmmmmNCBBNCCCCCCC!!!!!!!WEECCCBCCBCVVBmmmmcckhkhaaium",
"$9wuddgllkcccnmmmmVNVVVVCCCCCAEEEEEEEEACCBCBMMMMBmmcnclkggfdaiul",
"@8wuddfklkccccmmmNBmMVVVCCCCBCEEEEEEEECBCBCNmVMMNmcmcckhggddiain",
"@0wudafkkkcllmnmmmmmBBVMCNCBNCCCCCBCBBCBBBNmmMMMmmclcklafddaiatl",
"@wwuidggkhklcccnmmmmNNMMNBNBCBBCCBCCBNNNNmmmmmnccccmckkkdadiuirc",
"@9wt`)))hfkklcccmnmmmmMMmNNBBCBBBCBCNmmmmmmmmnnnnnnlkkkf__))uuwk",
"@59w)~~!EhhklcccnnmmmmmMmBmNNBNNNNmNNmmmcmmmmcnclcllkkkk)^^!Ew0k",
"O28q)~^!EffhhkcccnmmmMmMmmmmNNmmmmmmmmmcnclncnnnlnlkfkgg)^^!Ew5g",
"O25q`Q!QEadffkllcncmcnncmmmmmmmmmnmmmmcmccclcccclkffdadf_Q!QE82k",
".258wEEEEiaaffhkklncnnnlnncmnnnncccmcccckklkkkkkkgdiiuuuuEEEE51d",
"O258qwrtuuuiiaffkkcklcllkkkkllncccccckhhkkkkhkfdutuuutwwwww821:f",
"O279qrrttuuuuiiidffhfkffgkkkfkcccklkkkhffddiiauttrrrww0w8851:<1f",
" O@#$$*==;=;:<1<111111112242555555111<<21<<1<==;==**%$$#O@X.o .1"
};
