/* XPM */
static char *_2351e6f11274032caa34f5ccd360f85[] = {
/* columns rows colors chars-per-pixel */
"64 64 173 2 ",
"   c #5D3426",
".  c #5E332B",
"X  c #5C382A",
"o  c #602F2A",
"O  c #643425",
"+  c #6D3626",
"@  c #623B26",
"#  c #6B3827",
"$  c #643329",
"%  c #6B362A",
"&  c #653B2C",
"*  c #6B3B2C",
"=  c #723725",
"-  c #70372E",
";  c #743C2D",
":  c #793F2E",
">  c #643C34",
",  c #6B3C32",
"<  c #663F38",
"1  c #6C3F39",
"2  c #733D32",
"3  c #7A3F31",
"4  c #67412C",
"5  c #6F412D",
"6  c #74412D",
"7  c #7C422E",
"8  c #6D4234",
"9  c #66453E",
"0  c #6D4339",
"q  c #6F493A",
"w  c #754334",
"e  c #7C4434",
"r  c #754936",
"t  c #7C4935",
"y  c #75463B",
"u  c #7C453A",
"i  c #76493C",
"p  c #7B4A3C",
"a  c #7B503F",
"s  c #694C46",
"d  c #774541",
"f  c #794741",
"g  c #744C41",
"h  c #7C4C41",
"j  c #764F48",
"k  c #6F5147",
"l  c #775041",
"z  c #7D5144",
"x  c #77524A",
"c  c #7E5750",
"v  c #813F2F",
"b  c #81422F",
"n  c #834534",
"m  c #894737",
"M  c #844935",
"N  c #8A4B36",
"B  c #824539",
"V  c #844A3A",
"C  c #8B4C3B",
"Z  c #914E3D",
"A  c #84513C",
"S  c #8E503D",
"D  c #94523D",
"F  c #9A543E",
"G  c #9D583E",
"H  c #A35A3F",
"J  c #844C41",
"K  c #8B4C42",
"L  c #804F48",
"P  c #964E42",
"I  c #984E41",
"U  c #845242",
"Y  c #8D5544",
"T  c #8D5946",
"R  c #83544C",
"E  c #89564C",
"W  c #8E5B49",
"Q  c #945342",
"!  c #9B5544",
"~  c #935946",
"^  c #9C5945",
"/  c #9D5748",
"(  c #935C4A",
")  c #9C5A49",
"_  c #865F58",
"`  c #9E5F50",
"'  c #A15645",
"]  c #AA5747",
"[  c #A35A45",
"{  c #AA5C46",
"}  c #A05748",
"|  c #A45B4B",
" . c #AB5C4B",
".. c #B25E4C",
"X. c #A75D50",
"o. c #A85F50",
"O. c #AB6246",
"+. c #A5614D",
"@. c #AB634D",
"#. c #B3634D",
"$. c #A66250",
"%. c #AD6352",
"&. c #AE6956",
"*. c #B36652",
"=. c #B36955",
"-. c #8C7E7B",
";. c #987770",
":. c #9E7D76",
">. c #967E7C",
",. c #A37C75",
"<. c #9E8076",
"1. c #95847C",
"2. c #9D857D",
"3. c #9D8A7E",
"4. c #A2857D",
"5. c #AA837C",
"6. c #A4897E",
"7. c #948684",
"8. c #9C8684",
"9. c #968984",
"0. c #9B8B84",
"q. c #9D8689",
"w. c #978B89",
"e. c #9C8B8A",
"r. c #9C9086",
"t. c #9C928A",
"y. c #A38682",
"u. c #A98782",
"i. c #A38A83",
"p. c #AA8B84",
"a. c #A1878A",
"s. c #A18A8A",
"d. c #AC8E89",
"f. c #A49284",
"g. c #A3948D",
"h. c #AB948D",
"j. c #A4998E",
"k. c #AD998F",
"l. c #B3958E",
"z. c #B8968E",
"x. c #B3998E",
"c. c #B9988F",
"v. c #A49591",
"b. c #AB9593",
"n. c #A69993",
"m. c #AC9B95",
"M. c #AD9799",
"N. c #A79C98",
"B. c #AC9C9A",
"V. c #B39592",
"C. c #B89791",
"Z. c #B39C94",
"A. c #BA9B93",
"S. c #B29E9B",
"D. c #B99D99",
"F. c #ABA196",
"G. c #ADA29C",
"H. c #B3A096",
"J. c #BCA195",
"K. c #B3A39C",
"L. c #B9A29D",
"P. c #B9A99C",
"I. c #B49FA2",
"U. c #AFA5A3",
"Y. c #B4A4A2",
"T. c #BAA5A2",
"R. c #B5AAA2",
"E. c #BAA9A3",
"W. c #B6A8A8",
"Q. c #C09F96",
"!. c #C2A197",
"~. c #C2A299",
"^. c #C2ADAA",
/* pixels */
"! ! ! Q P D Z Z P [ F T c.m.g.k.^ ! Q Q ^ ^ ^ G D D S D } X.] ] ! F F [ {  ...{ K D C U A.K.B.S./ ^ ' ' [ { { ] ! ! ! ^ ! ! ! ! ",
"! Q ! Q Q D Z Z ! ^ D W z.m.g.k.Q ! ! ! ^ ^ ^ ^ T A S D ) X.X.X.F F F F [ { { { C D N U C.I.B.Z.F I ! ! / | | | ! Q Q ! Q ^ ! Q ",
") ! ^ Q ! Q Q P Q [ D Y z.B.v.k.! ! ^ ^ ^ ) ) ^ A C S S / ) | / ! G ^ ^ +.@.@.@.A D N U C.G.B.Z.! / [ [ } | | | ) ^ ) ~ ^ / ) ) ",
"Y Q Q Y K S S Z Y ! D Y C.B.m.Z.^ [ [ ^ Q D D ~ T T T ~ ` ` ` | D Y ! ^ / ) ) ) A S M U C.G.B.S.' ^ ^ / ^ ^ ^ / Q Y Q Q Y Q Y Y ",
"B n n n n n n n C Z N E A.U.G.K.O.@.+.^ Z M n M + + + + + % + + n b n e b e b n A N n A V.G.B.Z.F F D P C C V K m B V M V m B m ",
"e e e e 3 3 3 3 V C N U A.W.U.R.O.#.@.[ N 7 7 e 6 5 5 * * * * # e e e 7 w ; 6 5 A N n a z.G.N.F.F ! ! D n e 3 u e b e e B 3 b e ",
"n B e B n e u e V C m U D.W.U.E.#.*.*.[ C 7 7 e * * * & # @ O @ e V p t w r r r t N b z k.B.N.B.F ^ ^ Y C u y B n u u B u B B u ",
"e e e e e e e e K C B U D.W.U.R.O.#.*.[ C 7 e p , , , , , & & > w e t r 5 5 5 r M M n l x.G.n.F.F ^ ^ S V e y u e e n e e e e e ",
"p u e V J K K C - - , . L.D.I.N.! ! ) Y V u p p r r r w 5 5 * 5 w w e t e e u t t ; u p c.F.P.m.V e V V K Y Y P p u t V J K K P ",
"n e b M S Q K Z 2 1 1 . C.M.n.v.F ' ! D C b 7 n e n u e 7 ; ; 3 n n e n n u B M A 7 p d h.j.F.f.b N b N Z Z Z Z t t n M C Z Z P ",
"b b 7 b C Z C C , > > s C.K.Y.R.G G G D N b 7 t u e u 3 2 3 3 3 B B B B B B B B i w h z k.F.E.K.N M N N N D D Z 7 7 7 M N Z C C ",
"p r r p a A U J < > 9 s f.v.m.n.T T T U p p p p i y y q 0 0 8 8 y i y y p f p p q 0 f x f.j.m.m.t a p A A K U U r r r a p J U C ",
"f.i.i.i.p.p.p.y.p.4.4.8.E.E.K.G.p.6.p.u.y.y.y.y.6.i.6.6.<.<.4.3.4.5.6.6.6.6.6.6.p.6.5.4.E.R.R.Y.6.4.4.y.y.p.u.u.3.4.6.i.d.d.d.d.",
"t.v.t.g.t.r.e.e.d.0.0.0.m.Z.m.j.0.e.s.e.q.e.q.t.0.0.r.0.0.9.3.9.0.0.0.r.t.f.r.t.i.y.4.8.K.G.m.S.w.w.7.w.t.s.s.q.w.9.w.w.t.v.v.v.",
"r.t.t.r.r.0.0.0.w.7.0.v.m.P.E.P.0.0.0.0.e.e.e.q.0.0.0.0.9.2.9.8.e.0.0.e.i.e.e.e.1.i.8.d.K.R.R.^.e.w.e.e.i.e.q.0.1.0.3.9.t.j.g.t.",
"3.f.r.i.3.3.6.i.r.9.r.v.g.F.G.F.6.0.3.8.0.s.y.8.q.a.a.a.q.8.q.a.a.q.a.s.a.s.d.q.3.t.y.s.G.G.G.R.0.0.3.3.0.i.i.3.2.2.3.3.f.f.f.f.",
"Y C C C I ! F F G G G G ~ ^ ! I F ' ' ! Z Z D D G G G T J.G.B.G.{ [ [ [ X.] X.] ' [ [ [ ! F / [ F ^ ^ ^ ! ' [ ' F H F D x.B.m.m.",
"C C C C I / ! F D D D ~ D ! I ! ! / } Q P Z D Y ^ G D T J.F.m.m.[ [ [ ] | X.] | F ! ^ ^ F F F ! D D D F F ! F F ! [ F T A.G.n.m.",
"C m C P ! ^ [ ^ D ^ ^ ^ ^ ^ ^ / / / / ! Q Q Q Y ~ G D W J.G.G.K.[ | | X.| X.X.X.| | ` / / I ! / ( ^ ^ ^ / ^ / / Q ^ F T A.B.n.m.",
"Z Z P Z D Y D D ^ ^ ^ Q Q Y Y Q P Y Q Y Y K S Q T D D E A.Y.G.G.[ [ | } / / / / ! Q ^ ! Q ! Q Q ~ S T ~ ~ Q Q Q D D N T A.S.M.Z.",
"D D ! Y N M M V I ! D D C n n n ; 3 3 e e e B B e M 7 p V.B.m.m.! ' F P C m m m 7 3 7 7 e n n n 7 6 ; 7 e V n n V C b U V.I.m.D.",
"! ^ ^ D M 7 7 e ! Q ! S n e 7 e % + % * 3 e u e 3 e 7 p l.G.m.H.! ! I Z m 3 : 3 ; ; - 2 3 e e e * # # * 7 e u 7 e n e p V.Y.B.D.",
"F ^ ^ D B 7 7 p / / ) Q V e e p * * * 2 y u u u y e ; g x.Y.B.H./ / ^ P V n e e 7 w 3 w u p p u w 8 * w u p A u y e : p V.Y.G.A.",
"F F ^ Y M e u A Q ! Q Q V e e t , & , - y u B u y u 6 i l.U.m.Z.! / ! Q B 3 e u w 2 2 w e y e w 5 5 * 6 y u y 3 u u e l C.T.G.H.",
"D / / K ; . . > p A A t 6 * ; 8 e e u w * @ @ & 7 v B - ~.H.P.L.' { $.~ t * , 1 B h J p y 2 w y 7 e e 7 e w e 7 v n B 2 ~.m.Z.D.",
"H ' | K ; O O & C A C V 3 2 ; 2 u B B e % $ # @ A C K i !.Z.Z.S.H O.+.D 7 + + ; C V V B e : w 7 u e u B n u e n B V B y A.h.v.h.",
"H ^ ^ C ; O O O C C V B 2 - - - B u B 3 - + $ % 2 2 3 d x.m.G.D.{ O.O.G b = = ; A V N n 7 7 6 6 B 3 B B B B B u u y B f x.Z.K.L.",
"K T Y U w & & > h z z f y 0 0 0 d d d d 1 > < < l f z c x.G.K.T.~ ^ ( W p 6 1 1 p p p i r 8 q 5 f f i y y y y i q y f j f.v.m.b.",
"p.d.d.p.8.>.8.y.6.u.6.6.6.3.3.0.y.y.y.y.6.2.y.2.4.,.,.:.K.K.K.Z.5.p.d.p.4.>.2.8.y.y.y.y.y.0.i.0.5.6.6.6.6.6.6.6.p.5.5.4.E.P.Y.G.",
"7.q.e.e.e.e.e.t.3.0.0.3.r.0.r.w.0.0.0.0.r.0.t.t.v.p.p.d.K.G.K.S.s.0.s.q.w.w.e.q.7.8.7.e.e.e.r.w.0.9.0.0.0.0.0.0.i.y.4.y.m.F.m.b.",
"w.0.0.0.q.0.s.s.0.0.0.0.0.r.w.w.e.e.w.0.s.s.s.s.1.1.2.s.j.G.R.G.0.0.0.0.e.q.e.e.0.7.7.w.w.e.r.w.0.0.0.0.0.0.0.0.0.2.i.h.n.R.E.Y.",
"0.0.0.0.i.6.i.6.i.i.8.0.e.q.e.e.q.q.q.a.s.s.s.a.t.0.s.h.v.G.G.B.i.y.0.3.i.0.9.q.i.4.2.0.i.r.0.0.s.q.s.a.s.a.a.q.r.0.s.b.t.B.G.m.",
"} } } } / ' ! ' I ' ! ~ c.S.m.H.^ D D F F ! ! F { | [  ...#.#...[ [ [ / ! ' ! F F G F ~ c.G.B.G./ ^ Q ! ! ! ! I ..#.*.| C 3 3 V ",
"} / / / ! ! I Q I ! F T c.m.n.m.D D D D Q D ! F [ [ { O.%.#.*.#.^ ^ ^ ^ ! F F ! F G F T A.m.n.Z.! ! ! ! / / ! ! ..*.=.| C : 3 B ",
"/ / | / / Q ^ ! ^ ^ ! W A.G.m.Z.Q ! Q ^ ^ ^ ^ ^ ^ ^ ^ | X.%.%.%.^ ^ ^ / / ^ [ ^ Q [ Q W A.S.N.S.Q ! ! ! ! ! / ^ #.=.=.| S e e B ",
"Q ! Q Q Q Q Y P Q ^ D T A.K.m.S.^ Q ! ! Y D ~ Q +.+.+.$.$.&.&.&.^ ! ^ Q ~ ^ Q ! Y G Z Y A.S.B.Z./ ! / Q ! D Q Q | @.$.) C e u V ",
"V B M B V B M u e M b A h.M.n.Z.D D Q C N n M n e : : 7 e b v v C C C S C C C C n n b p d.n.v.k./ / ^ Q D C C S m C C N e : e e ",
"e e e e 7 7 7 e e e 7 i d.M.b.M.P P P S M 7 7 e t A M e V V n n N M A V C C N C 3 3 : u d.N.b.k.I / / P C V M M v e e e e 7 e e ",
"e e w e e p e p e e 7 p V.I.M.D.I ^ ^ Y V e t t t w w w e e e e V C C C A A A C y e 7 p l.S.b.x./ } / Q C M M A B e e B p u e M ",
"r t e t r e t r e t 7 p b.M.b.V.P I Q S M e e t t r w t t p u n V V V V C V C A y u 3 y d.M.h.h.I / / P S M A A V B B e e e 7 e ",
"J J J A i u u y N N n E x.T.E.I.) ) ) Y V u u p X     & 6 p p e 4 4 4 5 t M M e 7 e e , J.A.m.G.! ^ ^ Y V u u f L J J u u u i u ",
"C S S C n n e t Y C C E z.P.I.I.! ! ^ D N 7 7 e o     % 2 u B B 8 * * 6 B V A M M u p 8 C.l.b.j.F G G Z B 3 3 e V V A V V B e n ",
"N N N N M M 7 b p e p R k.K.E.T.' [ G Z N 7 7 7 o o o - 2 u u B , * * 3 u V C V w r i g A.A.K.Y.G G G D N b b e C M M n M b b b ",
"p A p p r r r r z L R _ C.K.E.E.Y Y T Y a p p p > > > < d d d d 1 < 1 0 f p l p q 9 g k p.h.b.m.T D T U J p i h p p p p p u i i ",
"u.u.p.u.6.6.3.i.:.,.,.;.K.F.B.k.u.u.p.y.6.y.5.y.2.2.2.3.3.3.6.6.2.y.3.4.6.6.6.6.6.6.2.3.T.P.P.G.6.u.y.u.u.u.y.a.y.y.y.y.y.y.y.y.",
"0.e.e.0.0.w.e.r.0.y.y.:.P.F.F.Z.0.0.e.e.e.e.e.e.e.r.0.r.0.r.3.0.0.0.0.0.r.0.3.3.i.3.3.0.m.D.B.n.0.e.q.e.e.t.e.e.q.w.e.e.e.e.e.e.",
"0.0.0.0.9.0.9.0.-.7.8.1.G.F.K.P.0.0.0.0.t.s.e.e.e.t.e.r.0.3.0.0.q.q.q.0.0.3.0.0.0.1.0.j.m.Y.E.Y.e.8.0.r.f.t.g.t.7.8.0.7.8.0.e.e.",
"4.4.6.3.3.3.3.3.7.q.y.9.G.j.F.H.3.3.2.0.s.i.a.a.a.a.s.q.0.0.0.q.8.q.a.a.i.s.0.s.r.9.r.v.v.G.K.G.0.9.0.0.0.p.y.i.2.2.2.2.8.i.y.0.",
"G ^ G ^ ^ ' } ! ] ....{ ' ! ! ^ / ! ! ! ' I ! } P ! Z Y z.M.b.b.Y Q D ! ..#.#...} ! ! ' / ! ! / P P Q ! ! ! ) / ! [ F ( !.T.K.P.",
"F F F D / / / / ] ..X.| ! Z D F ! ! ! ! I / ! ! Z P D A V.M.b.l.P S Z !  .*.#.#.I } I Q I / I ! P Q Q D Q Q ! Q Q [ ! W A.Y.K.H.",
"G ^ ^ ^ / / / | ..%.%.X.[ ^ ^ ^ / ^ ^ ) / / / / Y Q Z Y C.B.n.k.Y P Q ^ %.*.=.*./ / / / / / ^ ^ Q Q ! ~ ^ ) ) / ) ) ^ ( ~.T.K.P.",
"^ ^ ) ^ ^ Q Q ! / | | ` ! ~ Q T Q P Y P Q Q Q Q K S M U V.S.B.m.Q ! ! ) / | | | Q Q Q Q Q Q Q Q Y D Q Q P Y Q Q / Q D W D.T.G.P.",
"! ! ! D C n n n v m m B B n n B M V n M V n M V w 7 ; y d.N.g.h.Q D P D C n m B B B M V M B M M n n n n n B n n V N N p V.I.B.S.",
"! ! I Z n e 3 e 3 3 3 e e e e n e e e e e e e w , , + 8 d.M.n.b.! ^ Q S n 3 ; 7 e n e e e e e e b e e e e b B 3 w e 7 p l.S.B.Z.",
"' } / Q C n e u u u B u B V V J t u p t e t u t , , + 0 d.B.n.k./ ^ / Q n 7 w w e e e t u t p e B u n e n u e e p N e p V.Y.S.S.",
"! ' / P B b e u y e 3 y u u u u r e e e p e t t > , % < g.N.v.l.F / ^ S n w w y r p t e r t e t e e u e e e e e p e 7 p V.I.M.M.",
"Q ) ) U 1 , , 9 B J J J u 3 B J e e w t t t t t b v B 2 !.F.Z.D.I / / Y V e e p w e w e t e t e B p p u u u y u b v B 1 J.m.F.F.",
"! ) / S 3 + , , C K C C B B v B u n e n u u B B B B B y c.k.b.b.F ! ^ D n 7 7 e B B n n e B B B V V B M B n b e C C K d J.j.n.m.",
"F ^ ^ S 3 = + # m C C n n 7 v v u u u e B u B u u y V g A.H.K.L.F H ^ Z N b 7 t B 3 B B B B B B M n n b b n e b w u u d x.j.F.S.",
"Y T Y U y , , , p p p p u y u y y y y i i i y f 8 y f j f.j.k.M.~ T T Y p r r p y y y y p f i f p p p i p i e y l h R R k.j.m.S.",
"p.d.p.p.q.2.8.9.y.y.y.y.y.p.p.s.6.6.6.i.6.p.6.y.u.5.5.5.E.R.R.G.6.d.p.p.5.y.8.y.4.4.6.3.4.6.6.6.p.p.s.p.y.y.y.8.4.,.,.:.Z.m.m.b.",
"a.q.e.e.e.r.e.e.7.7.7.w.r.e.t.e.r.r.0.r.r.r.r.e.f.4.4.s.n.N.F.b.i.e.s.e.e.7.q.q.9.3.3.3.0.0.0.0.e.e.e.w.e.w.q.w.f.p.u.d.m.m.m.l.",
"0.0.8.e.0.0.0.0.7.1.1.7.r.t.e.e.0.0.0.0.0.t.r.r.0.1.y.d.N.R.E.T.r.t.t.t.e.q.e.e.9.8.8.0.0.0.0.0.e.e.e.e.0.q.7.0.7.>.2.a.g.N.S.M.",
"p.y.0.8.6.3.2.1.0.1.1.8.0.0.e.0.q.e.s.e.q.s.s.e.0.9.y.v.j.G.G.m.6.i.i.6.s.0.q.y.s.q.q.a.0.a.a.0.p.i.s.s.i.6.0.3.t.0.e.l.t.b.Z.l."
};
