/* XPM */
static char *_2b8a0b0e6134ac48c31ffead4fcc78d[] = {
/* columns rows colors chars-per-pixel */
"64 64 130 2 ",
"   c #73311E",
".  c #75321E",
"X  c #77321E",
"o  c #7C331E",
"O  c #7A381D",
"+  c #6F5417",
"@  c #6F5519",
"#  c #6F551B",
"$  c #7F5F16",
"%  c #705924",
"&  c #715A28",
"*  c #725E33",
"=  c #725F35",
"-  c #80341E",
";  c #84351E",
":  c #88361D",
">  c #8A371D",
",  c #8D371D",
"<  c #8F381D",
"1  c #91381D",
"2  c #93391D",
"3  c #95391D",
"4  c #983A1D",
"5  c #9B3A1D",
"6  c #9C3B1D",
"7  c #A23C1D",
"8  c #A83D1D",
"9  c #AB3E1D",
"0  c #AE3F1D",
"q  c #B13F1C",
"w  c #87461A",
"e  c #8E4E19",
"r  c #9E461B",
"t  c #9A401C",
"y  c #955518",
"u  c #A34D19",
"i  c #B7411C",
"p  c #BB411C",
"a  c #BE421C",
"s  c #AC5A17",
"d  c #A85418",
"f  c #8B6814",
"g  c #926D13",
"h  c #9D7412",
"j  c #A36315",
"k  c #B66715",
"l  c #A07612",
"z  c #A77B11",
"x  c #AB7E11",
"c  c #B77812",
"v  c #91552C",
"b  c #985D2F",
"n  c #937122",
"m  c #9A7726",
"M  c #8E7230",
"N  c #90773D",
"B  c #AE7839",
"V  c #C1431C",
"C  c #C4431C",
"Z  c #C7441C",
"A  c #CA501A",
"S  c #CC5619",
"D  c #CD5C18",
"F  c #D06815",
"G  c #C47B11",
"H  c #D47413",
"J  c #927B48",
"K  c #B5850F",
"L  c #AF8010",
"P  c #B28310",
"I  c #A98324",
"U  c #AF8828",
"Y  c #A68539",
"T  c #A1833C",
"R  c #B58F35",
"E  c #C5870F",
"W  c #C08D0E",
"Q  c #C48F0E",
"!  c #CD890F",
"~  c #D2950D",
"^  c #D7960C",
"/  c #DD970C",
"(  c #D2990C",
")  c #D99C0B",
"_  c #DB9C0B",
"`  c #D99E0B",
"'  c #DE9D0B",
"]  c #D69F15",
"[  c #D39E19",
"{  c #E0A30A",
"}  c #E1A50F",
"|  c #E1A713",
" . c #E2A818",
".. c #E2AA1D",
"X. c #C79927",
"o. c #C3982B",
"O. c #C4992E",
"+. c #C89D33",
"@. c #DEAF36",
"#. c #E3AC21",
"$. c #E3AE26",
"%. c #E4AF2A",
"&. c #E5B12F",
"*. c #E5B334",
"=. c #E5B335",
"-. c #E6B538",
";. c #E6B63D",
":. c #AD8F44",
">. c #BD8A40",
",. c #B19245",
"<. c #B89847",
"1. c #BC9A45",
"2. c #BC9B48",
"3. c #B69955",
"4. c #BF9E50",
"5. c #B99C56",
"6. c #C7A44B",
"7. c #CBA74C",
"8. c #D9AE43",
"9. c #DDB247",
"0. c #C0A155",
"q. c #C2A359",
"w. c #E7B842",
"e. c #E7BA46",
"r. c #E1B74C",
"t. c #E8BC4B",
"y. c #E8BD4F",
"u. c #E2B952",
"i. c #E9BF54",
"p. c None",
/* pixels */
"p.p.p.p.p.p.p.p.p.p.p.p.p.p.p.p.p.p.p.p.p.p.p.p.p.p.p.p.p.p.p.p.p.p.p.p.p.p.p.p.p.p.p.p.p.p.p.p.p.p.p.p.p.p.p.p.p.p.p.p.p.p.p.p.",
"p.p.p.p.p.p.p.p.p.p.p.p.p.p.p.p.p.p.p.p.p.p.p.p.p.p.p.p.p.p.p.p.p.p.p.p.p.p.p.p.p.p.p.p.p.p.p.p.p.p.p.p.p.p.p.p.p.p.p.p.p.p.p.p.",
"p.p.p.p.p.p.p.p.p.p.p.p.p.p.p.p.p.p.p.p.p.p.p.p.p.p.p.p.p.p.p.p.p.p.p.p.p.p.p.p.p.p.p.p.p.p.p.p.p.p.p.p.p.p.p.p.p.p.p.p.p.p.p.p.",
"p.p.p.p.p.p.p.p.p.p.p.p.p.p.p.p.p.p.p.p.p.p.p.p.p.p.p.p.p.p.p.p.p.p.p.p.p.p.p.p.p.p.p.p.p.p.p.p.p.p.p.p.p.p.p.p.p.p.p.p.p.p.p.p.",
"p.p.p.p.p.p.p.p.p.p.p.p.p.p.p.p.p.p.p.p.p.p.p.p.p.p.p.p.p.p.p.p.p.p.p.p.p.p.p.p.p.p.p.p.p.p.p.p.p.p.p.p.p.p.p.p.p.p.p.p.p.p.p.p.",
"p.p.p.p.p.p.p.p.p.p.p.p.p.p.p.p.p.p.p.p.p.p.p.p.p.p.p.p.p.p.p.p.p.p.p.p.p.p.p.p.p.p.p.p.p.p.p.p.p.p.p.p.p.p.p.p.p.p.p.p.p.p.p.p.",
"p.p.p.p.p.p.p.p.p.p.p.p.p.p.p.p.p.p.p.p.p.p.p.p.p.p.p.p.p.p.p.p.p.p.p.p.p.p.p.p.p.p.p.p.p.p.p.p.p.p.p.p.p.p.p.p.p.p.p.p.p.p.p.p.",
"p.p.p.p.p.p.p.p.p.p.p.p.p.p.p.p.p.p.p.p.p.p.p.p.p.p.p.p.p.p.p.p.p.p.p.p.p.p.p.p.p.p.p.p.p.p.p.p.p.p.p.p.p.p.p.p.p.p.p.p.p.p.p.p.",
"p.p.p.p.p.p.p.p.p.p.p.p.p.p.p.p.p.p.p.p.p.p.p.p.p.p.p.p.p.p.p.p.p.p.p.p.p.p.p.p.p.p.p.p.p.p.p.p.p.p.p.p.p.p.p.p.p.p.p.p.p.p.p.p.",
"p.p.p.p.p.p.p.p.p.p.p.p.p.p.p.p.p.p.p.p.p.p.p.p.p.p.p.p.p.p.p.p.p.p.p.p.p.p.p.p.p.p.p.p.p.p.p.p.p.p.p.p.p.p.p.p.p.p.p.p.p.p.p.p.",
"p.p.p.p.p.p.p.p.p.p.p.p.p.p.p.p.p.p.p.p.p.p.p.p.p.p.p.p.p.p.p.p.p.p.p.p.p.p.p.p.p.p.p.p.p.p.p.p.p.p.p.p.p.p.p.p.p.p.p.p.p.p.p.p.",
"p.p.p.p.p.p.p.p.p.p.p.p.p.p.p.p.p.p.p.p.p.p.p.p.p.p.p.p.p.p.p.p.p.p.p.p.p.p.p.p.p.p.p.p.p.p.p.p.p.p.p.p.p.p.p.p.p.p.p.p.p.p.p.p.",
"p.p.p.p.p.p.p.p.p.{ { { { ' H A Z Z Z Z Z Z Z Z Z Z Z Z Z Z Z Z Z Z Z Z Z Z Z Z Z Z Z Z Z Z Z Z A H ' { { { { p.p.p.p.p.p.p.p.p.",
"p.p.p.p.p.p.p.p.{ { { { ' S Z Z Z Z Z Z Z Z Z Z Z Z Z Z Z Z Z Z Z Z Z Z Z Z Z Z Z Z Z Z Z Z Z Z Z Z S ' { { { { p.p.p.p.p.p.p.p.",
"p.p.p.p.p.p.p.{ { { { { F Z Z Z Z Z Z Z Z Z Z Z Z Z Z Z Z Z Z Z Z Z Z Z Z Z Z Z Z Z Z Z Z Z Z Z Z Z Z F { { { { { p.p.p.p.p.p.p.",
"p.p.p.p.p.p.{ { { { { / Z Z Z Z Z Z Z Z Z Z Z Z Z Z Z Z Z Z Z Z Z Z Z Z Z Z Z Z Z Z Z Z Z Z Z Z Z Z Z Z / { { { { { p.p.p.p.p.p.",
"p.p.p.p.p.p.{ { { { { H Z Z Z Z Z Z Z Z Z Z Z Z Z Z Z Z Z Z Z Z Z Z Z Z Z Z Z Z Z Z Z Z Z Z Z Z Z Z Z Z H { { { { { p.p.p.p.p.p.",
"p.p.p.p.p.p.{ { { { { D Z Z Z Z Z Z Z Z Z Z Z Z Z Z Z Z Z Z Z Z Z Z Z Z Z Z Z Z Z Z Z Z Z Z Z Z Z Z Z Z D { { { { { p.p.p.p.p.p.",
"p.p.p.p.p.{ { { { { { D Z Z Z Z Z Z Z Z Z Z Z Z Z Z Z Z Z Z Z Z Z Z Z Z Z Z Z Z Z Z Z Z Z Z Z Z Z Z Z Z D { { { { | =.p.p.p.p.p.",
"p.p.p.p.p.{ { { { { { r 3 3 3 3 3 3 3 3 3 3 3 3 3 3 3 3 3 3 3 3 3 3 3 3 3 3 3 3 3 3 3 3 3 3 3 3 3 3 3 3 u { { } &.i.i.p.p.p.p.p.",
"p.p.p.p.p.{ { { { { { 3 3 3 3 3 3 3 3 3 3 3 3 3 3 3 3 3 3 3 3 3 3 3 3 3 3 3 3 3 3 3 3 3 3 3 3 3 3 3 3 3 3 { $.y.i.i.i.p.p.p.p.p.",
"p.p.p.p.p.{ { { { { { 3 3 3 3 3 3 3 3 3 3 3 3 3 3 3 3 3 3 3 3 3 3 3 3 3 3 3 3 3 3 3 3 3 3 3 3 3 3 3 3 3 3 e.i.i.i.i.i.p.p.p.p.p.",
"p.p.p.p.p.{ { { { { { 3 3 3 3 3 3 3 3 3 3 3 3                                     3 3 3 3 3 3 3 3 3 3 7 V i.i.i.i.i.i.p.p.p.p.p.",
"p.p.p.p.p.{ { { { { { 3 3 3 3 3 3 3 3 3 3 3 2                                     2 3 3 3 3 3 2 3 5 p Z Z i.i.i.i.i.i.p.p.p.p.p.",
"p.p.p.p.p.{ { { { { { 3 3 3 3 3 3 3 3 3 3 3 ,   v i.i.i.i.i.i.i.i.i.i.i.i.i.i.v   , 3 3 3 3 3 5 q Z Z Z Z i.i.i.i.i.i.p.p.p.p.p.",
"p.p.p.p.p.{ { { { { { 3 3 3 3 3 3 3 3 3 3 3 :   b i.i.i.i.i.i.i.i.i.i.i.i.i.i.b   : 3 3 3 3 9 C Z Z Z Z Z i.i.i.i.i.i.p.p.p.p.p.",
"p.p.p.p.p.{ { { { { { 3 3 3 3 3 3 3 3 3 3 3 ;   B i.i.i.i.i.i.i.i.i.i.i.i.i.i.B   ; 3 3 7 V Z Z Z Z Z Z Z i.i.i.i.i.i.p.p.p.p.p.",
"p.p.p.p.p.{ { { { { { 3 3 3 3 3 3 3 3 3 3 3 -   >.i.i.i.i.i.i.i.i.i.i.i.i.i.i.>.  - 5 p Z Z Z Z Z Z Z Z Z i.i.i.i.i.i.p.p.p.p.p.",
"p.p.p.p.p.{ { { { { { { { { { { { { { { { { K z 8.i.i.i.i.i.i.i.i.i.i.i.i.i.i.8.I 1.i.i.i.i.i.i.i.i.i.i.i.i.i.i.i.i.y.p.p.p.p.p.",
"p.p.p.p.p.{ { { { { { { { { { { { { { { { { x z r.i.i.i.i.u.N = = N u.i.i.i.i.@.:.,.i.i.i.i.i.i.i.i.i.i.i.i.i.i.i.-.} p.p.p.p.p.",
"p.p.p.p.p.{ { { { { { { { { { { { { { { { { z z i.i.i.i.i.N = = = = N i.i.w.| { :.:.i.i.i.i.i.i.i.i.i.i.i.i.i.w. .{ { p.p.p.p.p.",
"p.p.p.p.p.z z z z z z z z z z z z z z z z l $ n i.i.i.i.i.= = = = = = t...{ { { T J 5.q.q.q.q.q.q.q.q.q.q.4.U z z z z p.p.p.p.p.",
"p.p.p.p.p.z z z z z z z z z z z z z z z z h $ m i.i.i.i.i.= = = = * % { { { { { Y J 3.q.q.q.q.q.q.q.q.0.R z z z z z z p.p.p.p.p.",
"p.p.p.p.p.{ { { { { { { { { { { { { { { { Q z O.i.i.i.i.i.N = = & @ f { { { { { o.:.7.i.i.i.i.i.i.i.-.} { { { { { { { p.p.p.p.p.",
"p.p.p.p.p.{ { { { { { { { { { { { { { { { W z +.i.i.i.i.i.u.M @ + f ` { { { { { X.:.6.i.i.i.i.i.w. .{ { { { { { { { { p.p.p.p.p.",
"p.p.p.p.p.{ { { { { { { { { { { { { { { { K z 8.i.i.i.i.t...) + + ( { { { { { { [ :.2.i.i.i.t.#.{ { { { { { { { { { { p.p.p.p.p.",
"p.p.p.p.p.{ { { { { { { { { { { { { { { { P z 9.i.i.y.%.{ { x + + L { { { { { { ] :.<.i.y.&.{ { { { { { { { { { { { { p.p.p.p.p.",
"p.p.p.p.p.{ { { { { { 3 3 3 3 3 3 3 3 3 3     i.i.=.} { { { g + + g { { { { { { { 3 2 7 3 3 3 3 3 3 3 3 3 { { { { { { p.p.p.p.p.",
"p.p.p.p.p.{ { { { { { 3 3 3 3 3 3 3 3 3 1 .   w.| { { { { { + @ + + { { { { { { { o   2 3 3 3 3 3 3 3 3 3 { { { { { { p.p.p.p.p.",
"p.p.p.p.p.{ { { { { { 3 3 3 3 3 3 3 3 3 : o : d ^ { { { { { { { { { { { { { { ~ e     , 3 3 3 3 3 3 3 3 3 { { { { { { p.p.p.p.p.",
"p.p.p.p.p.{ { { { { { 3 3 3 3 3 3 3 3 5 0 0 5 2 3 k _ { { { { { { { { { { ) j     . ; 3 3 3 3 3 3 3 3 3 3 { { { { { { p.p.p.p.p.",
"p.p.p.p.p.{ { { { { { 3 3 3 3 3 3 3 0 C Z Z C 8 3 3 t G { { { { { { { { c O     o 2 3 3 3 3 3 3 3 3 3 3 3 { { { { { { p.p.p.p.p.",
"p.p.p.p.p.{ { { { { { 3 3 3 3 3 7 V Z Z Z Z Z Z a 7 3 3 u ! { { { { E w     o 2 3 3 3 3 3 3 3 3 3 3 3 3 3 { { { { { { p.p.p.p.p.",
"p.p.p.p.p.{ { { { { { 3 3 3 5 p C Z Z Z Z Z Z Z Z C p 6 3 3 s ^ ~ y     o : 2 3 3 3 3 3 3 3 3 3 3 3 3 3 3 { { { { { { p.p.p.p.p.",
"p.p.p.p.p.{ { { { { { 3 3 q Z Z Z Z Z Z Z Z Z Z Z Z Z V i 5 : .     . - 3 3 3 3 3 3 3 3 3 3 3 3 3 3 3 3 3 { { { { { { p.p.p.p.p.",
"p.p.p.p.p.{ { { { { ..9 Z Z Z Z Z Z Z Z Z Z Z Z Z Z Z Z p 6 -   . o 2 3 3 3 3 3 3 3 3 3 3 3 3 3 3 3 3 3 3 { { { { { { p.p.p.p.p.",
"p.p.p.p.p.{ { { | ;.i.Z Z Z Z Z Z Z Z Z Z Z Z Z Z Z V 8 2 2 3 , , 3 3 3 3 3 3 3 3 3 3 3 3 3 3 3 3 3 3 3 3 { { { { { { p.p.p.p.p.",
"p.p.p.p.p.{ } &.i.i.i.Z Z Z Z Z Z Z Z Z Z Z Z Z Z 0 5 3 3 3 3 3 3 3 3 3 3 3 3 3 3 3 3 3 3 3 3 3 3 3 3 3 3 { { { { { { p.p.p.p.p.",
"p.p.p.p.p.$.y.i.i.i.i.Z Z Z Z Z Z Z Z Z Z Z Z i 5 3 3 3 3 3 3 3 3 3 3 3 3 3 3 3 3 3 3 3 3 3 3 3 3 3 3 3 3 { { { { { { p.p.p.p.p.",
"p.p.p.p.p.i.i.i.i.i.i.Z Z Z Z Z Z Z Z Z Z a 7 3 3 3 3 3 3 3 3 3 3 3 3 3 3 3 3 3 3 3 3 3 3 3 3 3 3 3 3 3 3 { { { { { { p.p.p.p.p.",
"p.p.p.p.p.i.i.i.i.i.i.i.i.i.i.i.i.i.i.i.w. .{ { { { { { { { { { { { { { { { { { { { { { { { { { { { { { { { { { { { { p.p.p.p.p.",
"p.p.p.p.p.i.i.i.i.i.i.i.i.i.i.i.i.i.t.#.{ { { { { { { { { { { { { { { { { { { { { { { { { { { { { { { { { { { { { { { p.p.p.p.p.",
"p.p.p.p.p.i.i.i.i.i.i.i.i.i.i.i.y.&.{ { { { { { { { { { { { { { { { { { { { { { { { { { { { { { { { { { { { { { { { { p.p.p.p.p.",
"p.p.p.p.p.p.i.i.i.i.i.i.i.i.i.-.} { { { { { { { { { { { { { { { { { { { { { { { { { { { { { { { { { { { { { { { { { p.p.p.p.p.p.",
"p.p.p.p.p.p.p.p.p.p.p.p.p.p.p.p.p.p.p.p.p.p.p.p.p.p.p.p.p.p.p.p.p.p.p.p.p.p.p.p.p.p.p.p.p.p.p.p.p.p.p.p.p.p.p.p.p.p.p.p.p.p.p.p.",
"p.p.p.p.p.p.p.p.p.p.p.p.p.p.p.p.p.p.p.p.p.p.p.p.p.p.p.p.p.p.p.p.p.p.p.p.p.p.p.p.p.p.p.p.p.p.p.p.p.p.p.p.p.p.p.p.p.p.p.p.p.p.p.p.",
"p.p.p.p.p.p.p.p.p.p.p.p.p.p.p.p.p.p.p.p.p.p.p.p.p.p.p.p.p.p.p.p.p.p.p.p.p.p.p.p.p.p.p.p.p.p.p.p.p.p.p.p.p.p.p.p.p.p.p.p.p.p.p.p.",
"p.p.p.p.p.p.p.p.p.p.p.p.p.p.p.p.p.p.p.p.p.p.p.p.p.p.p.p.p.p.p.p.p.p.p.p.p.p.p.p.p.p.p.p.p.p.p.p.p.p.p.p.p.p.p.p.p.p.p.p.p.p.p.p.",
"p.p.p.p.p.p.p.p.p.p.p.p.p.p.p.p.p.p.p.p.p.p.p.p.p.p.p.p.p.p.p.p.p.p.p.p.p.p.p.p.p.p.p.p.p.p.p.p.p.p.p.p.p.p.p.p.p.p.p.p.p.p.p.p.",
"p.p.p.p.p.p.p.p.p.p.p.p.p.p.p.p.p.p.p.p.p.p.p.p.p.p.p.p.p.p.p.p.p.p.p.p.p.p.p.p.p.p.p.p.p.p.p.p.p.p.p.p.p.p.p.p.p.p.p.p.p.p.p.p.",
"p.p.p.p.p.p.p.p.p.p.p.p.p.p.p.p.p.p.p.p.p.p.p.p.p.p.p.p.p.p.p.p.p.p.p.p.p.p.p.p.p.p.p.p.p.p.p.p.p.p.p.p.p.p.p.p.p.p.p.p.p.p.p.p.",
"p.p.p.p.p.p.p.p.p.p.p.p.p.p.p.p.p.p.p.p.p.p.p.p.p.p.p.p.p.p.p.p.p.p.p.p.p.p.p.p.p.p.p.p.p.p.p.p.p.p.p.p.p.p.p.p.p.p.p.p.p.p.p.p.",
"p.p.p.p.p.p.p.p.p.p.p.p.p.p.p.p.p.p.p.p.p.p.p.p.p.p.p.p.p.p.p.p.p.p.p.p.p.p.p.p.p.p.p.p.p.p.p.p.p.p.p.p.p.p.p.p.p.p.p.p.p.p.p.p.",
"p.p.p.p.p.p.p.p.p.p.p.p.p.p.p.p.p.p.p.p.p.p.p.p.p.p.p.p.p.p.p.p.p.p.p.p.p.p.p.p.p.p.p.p.p.p.p.p.p.p.p.p.p.p.p.p.p.p.p.p.p.p.p.p."
};
