/* XPM */
static char *_97733e3a14f4a55fe575bae5ef05afc[] = {
/* columns rows colors chars-per-pixel */
"64 64 7 1 ",
"  c #79553A",
". c #966C4A",
"X c #B9855C",
"o c #593D29",
"O c gray53",
"+ c #6C6C6C",
"@ c #745844",
/* pixels */
"XXXX........        XXXX........        oooo        XXXX    XXXX",
"XXXX........        XXXX........        oooo        XXXX    XXXX",
"XXXX........        XXXX........        oooo        XXXX    XXXX",
"XXXX........        XXXX........        oooo        XXXX    XXXX",
"    ....oooo        ....OOOOoooo    XXXX....    XXXX....oooooooo",
"    ....oooo        ....OOOOoooo    XXXX....    XXXX....oooooooo",
"    ....oooo        ....OOOOoooo    XXXX....    XXXX....oooooooo",
"    ....oooo        ....OOOOoooo    XXXX....    XXXX....oooooooo",
"XXXX        ooooXXXX            XXXX            ooooooooXXXX    ",
"XXXX        ooooXXXX            XXXX            ooooooooXXXX    ",
"XXXX        ooooXXXX            XXXX            ooooooooXXXX    ",
"XXXX        ooooXXXX            XXXX            ooooooooXXXX    ",
"....++++XXXX    ....oooo    XXXX........    ....    XXXX....    ",
"....++++XXXX    ....oooo    XXXX........    ....    XXXX....    ",
"....++++XXXX    ....oooo    XXXX........    ....    XXXX....    ",
"....++++XXXX    ....oooo    XXXX........    ....    XXXX....    ",
"....    ....XXXXoooo....        ....oooo    ++++    ....oooo    ",
"....    ....XXXXoooo....        ....oooo    ++++    ....oooo    ",
"....    ....XXXXoooo....        ....oooo    ++++    ....oooo    ",
"....    ....XXXXoooo....        ....oooo    ++++    ....oooo    ",
"    oooo........    ....oooooooooooo        oooo            XXXX",
"    oooo........    ....oooooooooooo        oooo            XXXX",
"    oooo........    ....oooooooooooo        oooo            XXXX",
"    oooo........    ....oooooooooooo        oooo            XXXX",
"XXXX            OOOO        XXXXXXXX    XXXXXXXX    ....    ....",
"XXXX            OOOO        XXXXXXXX    XXXXXXXX    ....    ....",
"XXXX            OOOO        XXXXXXXX    XXXXXXXX    ....    ....",
"XXXX            OOOO        XXXXXXXX    XXXXXXXX    ....    ....",
"        XXXXXXXX........        ....oooo........        ........",
"        XXXXXXXX........        ....oooo........        ........",
"        XXXXXXXX........        ....oooo........        ........",
"        XXXXXXXX........        ....oooo........        ........",
"....        ....    ....    oooo    ........            oooo    ",
"....        ....    ....    oooo    ........            oooo    ",
"....        ....    ....    oooo    ........            oooo    ",
"....        ....    ....    oooo    ........            oooo    ",
"    ....oooo        oooooooo                    XXXXXXXX    ....",
"    ....oooo        oooooooo                    XXXXXXXX    ....",
"    ....oooo        oooooooo                    XXXXXXXX    ....",
"    ....oooo        oooooooo                    XXXXXXXX    ....",
"    ....    XXXXXXXX    XXXX....ooooXXXXXXXXoooo........OOOO    ",
"    ....    XXXXXXXX    XXXX....ooooXXXXXXXXoooo........OOOO    ",
"    ....    XXXXXXXX    XXXX....ooooXXXXXXXXoooo........OOOO    ",
"    ....    XXXXXXXX    XXXX....ooooXXXXXXXXoooo........OOOO    ",
"....        ........XXXX    ....++++........    oooo....    oooo",
"....        ........XXXX    ....++++........    oooo....    oooo",
"....        ........XXXX    ....++++........    oooo....    oooo",
"....        ........XXXX    ....++++........    oooo....    oooo",
"    oooo....    ........XXXX                            XXXXXXXX",
"    oooo....    ........XXXX                            XXXXXXXX",
"    oooo....    ........XXXX                            XXXXXXXX",
"    oooo....    ........XXXX                            XXXXXXXX",
"    ....        @@@@    ........    ooooXXXXoooo    XXXX........",
"    ....        @@@@    ........    ooooXXXXoooo    XXXX........",
"    ....        @@@@    ........    ooooXXXXoooo    XXXX........",
"    ....        @@@@    ........    ooooXXXXoooo    XXXX........",
"....    ooooXXXX    oooo    ooooXXXXXXXX    ....        ........",
"....    ooooXXXX    oooo    ooooXXXXXXXX    ....        ........",
"....    ooooXXXX    oooo    ooooXXXXXXXX    ....        ........",
"....    ooooXXXX    oooo    ooooXXXXXXXX    ....        ........",
"....    XXXX........    OOOO    ........        ........    oooo",
"....    XXXX........    OOOO    ........        ........    oooo",
"....    XXXX........    OOOO    ........        ........    oooo",
"....    XXXX........    OOOO    ........        ........    oooo"
};
