/* XPM */
static char *_db110bcf4e742a4dbc8d24aa9361267[] = {
/* columns rows colors chars-per-pixel */
"64 64 109 2 ",
"   c #5B5B5B",
".  c #606060",
"X  c #646464",
"o  c #656565",
"O  c #676767",
"+  c DimGray",
"@  c gray42",
"#  c #6C6C6C",
"$  c gray43",
"%  c #6F6F6F",
"&  c gray44",
"*  c #717171",
"=  c #727272",
"-  c gray45",
";  c #747474",
":  c gray46",
">  c #767676",
",  c #777777",
"<  c gray47",
"1  c #797979",
"2  c gray48",
"3  c #7B7B7B",
"4  c #7C7C7C",
"5  c gray49",
"6  c #7E7E7E",
"7  c gray50",
"8  c #808080",
"9  c #818181",
"0  c gray51",
"q  c #838383",
"w  c #848484",
"e  c gray52",
"r  c #868686",
"t  c gray53",
"y  c #888888",
"u  c #898989",
"i  c gray54",
"p  c #8B8B8B",
"a  c gray55",
"s  c #8D8D8D",
"d  c #8E8E8E",
"f  c gray56",
"g  c #909090",
"h  c gray57",
"j  c #929292",
"k  c #939393",
"l  c gray58",
"z  c #959595",
"x  c gray59",
"c  c #979797",
"v  c #989898",
"b  c gray60",
"n  c #9A9A9A",
"m  c #9B9B9B",
"M  c gray61",
"N  c #9D9D9D",
"B  c gray62",
"V  c #9F9F9F",
"C  c #A0A0A0",
"Z  c gray63",
"A  c #A2A2A2",
"S  c gray64",
"D  c #A4A4A4",
"F  c #A5A5A5",
"G  c gray65",
"H  c #A7A7A7",
"J  c gray66",
"K  c #A9A9A9",
"L  c #AAAAAA",
"P  c gray67",
"I  c #ACACAC",
"U  c gray68",
"Y  c #AEAEAE",
"T  c #AFAFAF",
"R  c gray69",
"E  c #B1B1B1",
"W  c #B2B2B2",
"Q  c gray70",
"!  c #B4B4B4",
"~  c gray71",
"^  c #B6B6B6",
"/  c #B7B7B7",
"(  c gray72",
")  c #B9B9B9",
"_  c gray73",
"`  c #BBBBBB",
"'  c #BCBCBC",
"]  c gray74",
"[  c gray",
"{  c gray75",
"}  c #C0C0C0",
"|  c #C1C1C1",
" . c gray76",
".. c #C3C3C3",
"X. c gray77",
"o. c #C5C5C5",
"O. c #C6C6C6",
"+. c gray78",
"@. c #C8C8C8",
"#. c gray79",
"$. c #CACACA",
"%. c #CBCBCB",
"&. c gray80",
"*. c #CDCDCD",
"=. c #CECECE",
"-. c gray81",
";. c gray82",
":. c #D2D2D2",
">. c #DDDDDD",
/* pixels */
"O.=.O.` ^ E E ] L L E ` E T L E ^ ` ^ V Z ` ^ ^ ^ b V ^ ` V H O.] ` L h b H z 2 z e y y y s z ^ ] ^ V s z T E Z L L Z z V ` ^ s ",
"O.@.] ^ @.@.^ b E ^ ] O.| | O.@.>.@.` b Z ] ^ L L H H H L E E E E z s b V h y s b z Z z s h y z Z ;.=.E E b s T T ^ O.@.] E L z ",
"L T E ^ ^ L b b E ^ ` ` ^ T E ` ` ` ` Z z V s q s z z z Z T T V z s y y s h s e h V L h s Z z s s V ] @.] E L V O.] | ] E L V h ",
"V ^ ` H V Z L E E E E T H V V H L H H e 2 y s h s e s b Z V b V H Z V h h b b z H L T h s L H V V e V ] ] =.| 4 s V E ^ ` @.| H ",
"Z ` H e z ` ] T H H Z V b z V H V h s 4 q b h h z e e s s 4 q h E b h V V s h T ^ L V 4 2 y e q e V Z V ^ =.| T 2 h T E L ^ O.| ",
"H b y s H T T E H H H H V b V H b b L V b b y q z z y e e y z V Z z z z b V H E T V h q 4 y q q 2 z H b z E @.@.^ H L T V z L ` ",
"L z z T ^ V V | ^ ^ ` ^ E L L T E ^ ] Z s z b T V H H b V T E T b L H b V ^ ] E L b b y z H V V z s V b q s H V T V H ` ^ H Z L ",
"h H Z V Z H H Z H T E ^ T H H L b z V h h H H T b V Z Z H L b y z s h h b V Z Z V h y * 2 h e q 4 y 4 q b e 2 V h h V h q q s h ",
"^ b y z z e e s e s z q 2 * V H Z V Z H L V z z b H V s h V H L e @ q h y s V E T E b s Z L V z b L ` T b s y s y 4 e q * 4 h E ",
"z h s s h z s e V h z h y , V L ^ E T L T E ^ ^ L ^ Z s b T H b H 4 y Z V V V E E Z T T z L ` L T T H V h s s y b y z Z H H z V ",
"h h s s s h s e T b b b b 4 Z T L H Z H L T T E ` Z b E H 2 , Z V 4 h T L V z Z q s s y s z Z L L H b y e e y s h y s h H V 4 y ",
"L V z V V h b L H b b z s 4 H ^ T b V T E Z Z ^ H H H Z z , # q * 2 Z E Z s 4 h e b y q b V h Z z V Z V h s z V z Z L H L b 4 b ",
"Z z z V V b H ` b z h q 4 2 H E ^ L V Z H L E ] T L Z V H V e 2 * h ^ ^ V s q s b s z b e y h 2 y h b V z h z V b L ` T L s , h ",
"z V Z b V H L H b z z q 4 2 L E Z T T V Z ^ ^ L E T H ^ | E Z L b L ^ L H V s b e s z h e 4 q q b h h h b V V V T L L b h q * h ",
"Z T E L L E T Z b z h e q 2 H T Z E ^ E E E H z s ` ] V V ` ] E ^ L H V Z V y H z E H b T Z b E T Z b Z L T L T | ^ E V s y h E ",
"h s s V Z b z b z q 4 q e , b L ^ V b L H s q h h z h y z Z H L T V b b Z y q T L z b V b Z L V z h h b z z V H V h H b 4 2 e L ",
"e b L H b h q 2 2 y e 2 4 4 4 4 4 # * h V e 2 y s e s Z H z e q V Z s 4 s Z Z z h b b z b Z V y 4 z L T Z h e q z b s q 2 s H z ",
"] O.` Z e q y y b b z z T E V h s T ` T b h V ` z H ^ ` E Z h e V L Z h z L ^ | @.| ] ^ H z z L E ] | T z e e s Z T b z b H ] ` ",
"| ^ Z h h z z s z T ` T H Z Z L T E L H E E Z h V H H Z L L z 2 V H V s y z Z ^ ` ` ] ] T Z L ] O.` H z h b b z h Z h h V Z E ` ",
"T V h s V T H s T ^ T L T ^ T L L T H Z H V b Z E L V h b Z z e L L Z H E ` ` O.` | L e q L O.| ^ H z y b H H b V E V Z ` ^ ^ | ",
"V Z h q 2 y y q b Z b z Z L L H V L H h y s V ` H L H V s q e y E ^ ^ ` O.O.` ` E ^ Z 4 h | =.^ V Z V y e e e 4 H ] L T O.^ E ] ",
"b V h q 4 y e 2 , s h y e q e y y z s e z L Z h h z V V h q 4 4 T ] | ` ^ L b z H Z Z E O.=.^ b V Z b y q e e 4 V E L L E L Z V ",
"h z s s b T Z y h s 2 , y h 4 # 2 h b b V V b h h s s y h z s 4 V ^ ` T L H H H ] L H T T b s s b b h s z H Z h Z E T L H H L z ",
"2 y e 2 q z z y y s 4 # , 4 2 2 y e 4 e y q q z y s q O   , e 4 y V h 4 q y e e z h z Z b q q h , q y 4 4 s h s y h s e 4 q s , ",
"T z h z z H E T L E ^ ` L b b Z V z b V h e s V L z 4 2 4 s b b V y s b h z H V s h V V z b H Z T q , Z V y L L L V s z q z h s ",
"^ L ^ ] T T ^ T E ] ` T ^ O.] H H L V y h T E Z @.V q b ^ ^ E ` H Z T E H Z H z T Z V Z H ^ ` L T b h E H V E L E ^ ] T Z H L V ",
"^ Z Z H V Z T L h b V Z H H L L E z e s b b b H E h s H ^ L Z T T E ] ` T T L b z h b H T E L b V h z L L T ^ z H H ] T ^ T ^ V ",
"` z e s h V L b z b L ^ T Z L ` E s s E E y s E H V h s z z z h b Z H b b H H z e h L E H H L V h 4 4 b L E V , # q H H V h H L ",
"^ z h L L T H h Z E ^ L L E T b b H T T H H L L ` V q 4 y h y q e e 4 , e b z s z V H Z h z H L z q y Z T H e # q * , b V H Z L ",
"L V L O.| ] ` E T ` ` T Z b b z T ] ` L L ` ^ V T s e z V y 2 4 2 q 2 2 y z h s V V b h y s h y e q b T T z 4 y H e , V Z ^ L L ",
"^ Z T O.| | @.O.| ] ] | T V Z ` O.| ] ] ] ] ` ^ H z z H Z y 4 e 4 y e e z z h z b z z b z s e * O , b H V s 4 b b Z T L h s H ` ",
"L s h L T L H h L H b s z L L b Z L E ^ ` ` ^ ^ ` V 4 , 4 q q 2 4 s y y z s y V h s s y 4 4 2 #   @ s s s e , y H Z H h b b L b ",
"4 e y y s z z s s q 4 e e q 4 e e 2 q y Z T Z ^ E z h L L s h L T L b y s b s , s 4 , 4 y b h , , e q 2 q 4 q h h V H Z e q y h ",
"s z b b b V Z V y e e h h y q e q V L s V O.^ b L V Z T E H Z T T z s b V h y y b V Z z s b H Z h z s e s h b Z ] Z Z ^ ^ T H Z ",
"s h h h z b h y h e 4 e q 4 4 e s z z q y V h s y h z V Z H H H b h s s s h h y h Z T b 4 q s q q s b z b E @.@.O.T H L V V L ` ",
"z b H Z b z s y h y q 4 2 2 2 q b e 4 q e e 4 b y h h s h b V b Z Z b h z b V b Z H H h y s s , q y V H L | =.T , h ^ ` L ^ O.| ",
"b L ^ H h e s V L L T E T H b b s z b e y V s s h h e q q e y h E b z Z Z h b E | T b y y Z L b y s V E ] =.` y e b ` ] ] O.] H ",
"` T Z b h h V Z L L T T L L H H L E L q q V s e z y e e y y z V H b b b V V H E E Z z e q z V z y Z ` | | ] E V @.] ` ] ` T Z s ",
"| L b b Z L L H E ^ E T L T ^ ` ] T V e s V b Z b V V V H L T E b L T V Z ^ ] T L z h s e y h s L ] @.` H z z Z E E ] O.] ^ T b ",
"h z Z Z h y z L h z b z z z h z e e e 2 h L H L b Z H Z V Z V z h s z b Z Z Z Z T h 4 4 4 y h z T L z e h h z H h V V s s L T s ",
"b b V V H T H V b z z b V e s s z q 4 h s q s V b s z e q y 2 e s q 2 y z z Z T T E ^ ^ E L L L H H V V Z L L Z b b Z H L b y L ",
"H L L L L E ^ ^ T H L L T s H T ` T L Z V L E T V O.T H h q Z y y y b L V y z E E ] | ` ^ ` ] | ` Z Z ] @.] ] @.O.@.;.@.| T V ] ",
"Z Z H H H H E | T L H H Z e H ] E ` ] L z V L L Z ^ @.] T L V V b y q e q 2 s E H T T L L E ^ E z V H T E E ^ ` ` ^ ` ] @.` h V ",
"L L T T L L ^ | ^ L H Z b q H | ` ^ O.O.E H T ` V q L ] @.O.z H H e 2 e s e z ` L Z V L E T H V L E ` T T ` E Z y Z ^ L V s y T ",
"T T E E E T E ^ ` T Z z h 2 V E ^ Z Z E ] O.| E Z z 4 ^ ;.` ` L s y b T H h z E L b z H L b z V O.L Z T ` L b z b H L h y e s ] ",
"L T T T T L L Z ] ` T V b q V Z b h y h H | O.E O.` H Z E ` O.| H z h b b h b T H b V Z b y h T L H H H Z b b b ^ L b h L T b H ",
"L E T Z Z L H V E ] ` L Z h L H h z Z L L ` | | O.T ] b z ^ H ] =.T s q e h H ` L L H H V b H ` V ] O.^ T ` | ^ L T ^ L E T b L ",
"b H V y q h z s e V Z h s e V z y , q Z H z z b z b h Z V e z h H L H z e q z H Z Z b h z Z H V T V V L ` ] E H E L V s z z q h ",
"L V z L ^ E L y # e b V b V b z b h y h V V V V b V V z V E L y s Z z z L E ` T ^ ^ E Z H L H b L b z b b Z L Z e 2 , q 4 q b z ",
"Z E L V Z ^ | V y s b L E E Z V H T L V H ` E h T b Z L L Z b h L ] E L L H T E ] E T ` E Z H E Z z b L L T ^ ] y z b V h s b s ",
"y s s b b h h 2 y s Z T L z z H V b b V V z s e q y h s y s s 4 V H z V H V Z b Z H L L T E T H e b H z h T ^ V s T H z s y h s ",
"L z q y y y h y s V T T Z z z H h h V H b 4 4 h q h z s e z V y 4 y e b T Z Z z V H T L ^ ] T z y T ^ b s T ^ z s E L V V z b b ",
", s z z z b V * V Z V z z Z b s s V H V z V Z b V y y z s y e y 4 b H E L z V L ` T L E E Z b V T H T ^ H Z L T 4 V Z ^ ] H b b ",
"e h s y 4 q z y b Z b y e z z e h s s V H L L L V s y s s h s q Z | | O.` T E ] ^ ^ ^ T V b L ` ^ T E E H Z Z Z 4 h z E ` H V V ",
"Z H H ` E b b s y b Z h e s z V V y h E ` H H ^ Z H L Z H ^ ^ V E O.| O.@.| @.| T | ] H Z E | O.` | | E L ^ E b y h z L L L ^ L ",
"H Z h h V T L 4 2 4 q q e y s h e b T E H Z V H Z h z H H V V b 4 H T L Z V H Z T Z z Z H H Z H E L T ^ E ^ E H # q h V b H E z ",
"T V 4 2 , O * 2 q e e y y e e e 4 b 2 , e 2 4 4 2 q 4 q * 2 e Z Z V V Z b h s b b z b Z H Z V V Z q e V V b H L E Z h Z s b b V ",
"T Z e s z y h z h s h V H H b h s h , 2 q * 2 e z y 2 e q z z Z H E ^ L H L L Z V E ^ L H L L b E z b E L b H T E | ] H H ` ^ s ",
"E b 2 q s h Z H s z H Z V z b b z s 4 e e , 4 e s 2 O , 4 z z V L E T V b Z V z V Z V e q s z h s 4 y H T T T H H Z O.] ^ z H L ",
"] H 4 q s h H L H T T Z h y z Z L Z Z L Z b b b z e * q e z b T ` L b V b h z H H h q q q q e s s h s z T ^ V , * e H Z V b L H ",
"L V y h V b H V ^ T V h z V V z T T ` ^ L T T Z E b q h h Z Z T H z h b b h b L V z h V V s e y s s h V L Z e @ y , * z Z ^ T H ",
"Z z e z Z H ^ T T T Z V Z L H V L E ` L H ^ L L T h , h V L Z H y h z h s h h h b L E H b z h s y q y L E h e V E q * L T T H ` ",
"T V e h H E | ` V L T H H L L H z Z T V H L b L V e * h V L V Z y z b z h h z V E ^ T H Z H H Z L Z V T E s e H V H H z s L E L ",
"Z z 4 y Z H H h z h s e y h s 4 O , q 4 s e @ q e 2 * y y e 4 s y 4 e z z y b ` E b h H ^ L b z H H s q s y q q H b Z h z z L Z "
};
